<mxfile host="app.diagrams.net" agent="Mozilla/5.0 (Windows NT 10.0; Win64; x64) AppleWebKit/537.36 (KHTML, like Gecko) Chrome/137.0.0.0 Safari/537.36" version="27.1.6">
  <diagram name="第 1 页" id="rWd9lRXuGbTaIadvQv-n">
    <mxGraphModel dx="1426" dy="743" grid="1" gridSize="10" guides="1" tooltips="1" connect="1" arrows="1" fold="1" page="1" pageScale="1" pageWidth="827" pageHeight="1169" math="0" shadow="0">
      <root>
        <mxCell id="0" />
        <mxCell id="1" parent="0" />
        <mxCell id="ep5PbQnrRsc5Sk-XkBM--1" value="" style="shape=actor;whiteSpace=wrap;html=1;" vertex="1" parent="1">
          <mxGeometry x="140" y="170" width="30" height="40" as="geometry" />
        </mxCell>
        <mxCell id="ep5PbQnrRsc5Sk-XkBM--2" value="Yaml" style="rounded=1;arcSize=10;whiteSpace=wrap;html=1;align=center;" vertex="1" parent="1">
          <mxGeometry x="180" y="180" width="40" height="30" as="geometry" />
        </mxCell>
        <mxCell id="ep5PbQnrRsc5Sk-XkBM--3" value="API server" style="rounded=1;arcSize=10;whiteSpace=wrap;html=1;align=center;verticalAlign=top;" vertex="1" parent="1">
          <mxGeometry x="260" y="162.5" width="90" height="67.5" as="geometry" />
        </mxCell>
        <mxCell id="ep5PbQnrRsc5Sk-XkBM--4" value="" style="endArrow=classic;html=1;rounded=0;exitX=1;exitY=0.5;exitDx=0;exitDy=0;entryX=0;entryY=0.5;entryDx=0;entryDy=0;" edge="1" parent="1" source="ep5PbQnrRsc5Sk-XkBM--2" target="ep5PbQnrRsc5Sk-XkBM--3">
          <mxGeometry width="50" height="50" relative="1" as="geometry">
            <mxPoint x="130" y="430" as="sourcePoint" />
            <mxPoint x="180" y="380" as="targetPoint" />
          </mxGeometry>
        </mxCell>
        <mxCell id="ep5PbQnrRsc5Sk-XkBM--5" value="" style="shape=image;verticalLabelPosition=bottom;labelBackgroundColor=default;verticalAlign=top;aspect=fixed;imageAspect=0;image=data:image/png,iVBORw0KGgoAAAANSUhEUgAAAKEAAACdCAIAAABTi483AAAgAElEQVR4Aey9939c5bUvfP+M95d73/fce07AljS9j4obnbRzOElOCAFsS5qy28xILrRAEkgCKYQQCGlAygFCCMW4YmzcZNmWi2xZdXrvve263rOeLQlDQmg35JPkzOf5yOPRaGbv/X1W/661/wf8PT0UgA+1/p7O/b3P5X+896/+Bn/zoQBW/gZP8CMd8j8IxgooZKGYy1esfwic/94xxo1/Ja4SgLiyJPKrjyQaf1N/9PeF8Z+49CrAEoC6VIAFAIEg/d9y/Ccu2d/cS+/C+L/l+G8OwXcesPKnH7Isi1fYYBRoUep2u21Fkf/kX7zzU//m//d3pav/JGCK8rZClshjFbT3ff/qO/+mn/x9YXyF93xlGCXJsLpkBVbX3zRyH/zg/54wVlbgQ8l9z0ViKFkGUfzgV+lv+51/fxhLBOl3wyzLIAjA89DtgsCDLKHI/4M8/q4wlkGUcEkSARGdKwWXIK3oZxnklaXIgOtPPf7OsP/7wVgBRVQEEQQRRFGRREURFRBlXJjZUvAXnQ6027g6HRRo3At/6vHfGH+MK6AGq1eaymW7eWV+cfm5giInSegtyWoecvmLr/xz1LerEbAoKh1B6fKK1FGgLUNThroMNRnybZiJwe5j+V++OPvUczPP7U4cmhKnQ1CX8D0tGToy8DIIkiJJoix1SYZETZLIq18g4zfhVlFAVMhREUWwnBpVDwqP8MrD+xiX6v/in36CcqyQzJJ66aSVeFWRSQZKAOCvWJiHklHSWm1odaEjoBAqCLX6djVnpW4GvMiCKDV4sdrhyxJ0O7JSFaAGUAK4WICXzsDwQ+f+455zNzAT/VsO2+94c2D42LXM2c+Pn/r6s9HXz8qxDlQBt0JLBAUznU2AKshFkCoAXWXl+Lp4+F0RqjzUBGgJ0OVB5EHhyY5QT2h5v6kHSTbF/0WoPvJH/VUxxi2vSqG4IjrqFVMxFrrQ7aCfJAgo0OS9KroSvl3qCGK3CwruDwXaEm4FSQBoAxREmCvBa+dg+0/jG+mjG7jpfmbOSi2ZvWGTN2KmohY61s8uar6869OBQ/f8PPzaWUi0EdsuQLFcEvk6KA2AFkCHF/m2qHTJBhSBl6Ap4mboCuSoVjFWkyzLakU9p39EjN+p9XDLrzyuVG9XPl/W0epLqtSimySJnQa55l2Argx8R2615FYLoA5QlmGpBK9MtHc+Mf0Z337n8H7ryAn98Bm967KRCpq5mNkXN3NRIxMyeeeGfPP9rlNDo0e+uPP0/T+LvjahxCvQVqDeRjWC0qjwRIt3RGg3hRoe7+rxrRgJclxq2CYRNc6TrdIhR4iq/q/++ATlGOUQvdrVXb5seK+4bqsXcFkgVPFW6wioDSVAiWqR1RaUVktq1yVRlbgawMUs/PpgnX345Oe43Zvc+wbdR5zUWTs7b2GDRjaq52I6Nqpjw3o2qGcXTdzS0PbMgC/m9M45hqcG7nzr88zx+5+IvXRIDheg3CVg89DgWxIqiaoMLYR99WBW7QWqIlHdc8QNaEko6E0JOgoWQv76j08OYwVkkcSoIkgiKOJKJQiRXinvvl3kBWKwVZFYtngSKB2ABqAj1WiKtYrYbQLa3TLA6Sg8f7RCf+/Czb4jltt2Oba+tSkwuy4QMlHBXteSZSxvCGS1/lQfF+tjgxp2Qeeb1/uWejzBXlfUTKfWjeXXsQn7ndP9Xz153dajdz8W//1hiFbxy9rLGqPJyy1Me6+u5dqVhPYBD6ytbj4Z2iK0eeJDEF3wj4SxDDLxUzrEvuLlUv2UZVxV67UqyO/GWAKpCwpKsAidNkjEL4ICwJkU/OJAiX7k5E3MXvNX91mHT6/zLWzcFrcx0Z7hpV53wrKt3kNle5hsny+j9Sd1/qjOv6TlZvuYefP2rM6X0dApA5OzMEU7lRuiM9eyccuXj9ziP33/T6MvH+cvp6EkouroAkKH2THVpcL9J6LXJXVAbpFjawPKLk9elQXiIP71EQb4hOW4q25wEdUuscjvUtyI8arq64DYAKEOYh2kBsgt9JmJL1QFSErw5iI8/LvUrfdNrhs92L/12BB18eb78k5fXDO80DcaMrI561jd6K9r2OrVnvxaOt/HZnW+tMEXM3AhPbegZeaucl/U+EK6sUQfl1jrSfZ5Mka6YGfz1+4omO88o71l16Ytu70PnvrpK7mpMPreuS5UJSLZCgiCKPNtBFhqkdUGuYvqScHzUhX5FS7HXxPrTxRjCUMgXsK0BDn91Yvxtm3DQAigQwKYGgYwckmRq6LS7ipyg6jlHMDhIDy+p3z7g1PrvYf7PWfW+YKDvqSVjus9ESOTNPtyRi6vZ0s6ttJHlde4C4ZAU+er6ti8lk7qqKiBDpvYkMWPSFu2RUzb49pAXBvImnZUtf7ip0ajOjph4+KbxuPXBxYG7jw8dPvu0W/MPPV6I8RDUkHlUQGoidAWRFTUMhFlqYvPMZhfDQv/mrhe+d2fHMZEblfAlIk78sculdxVxLrAF0WpoEBFgloXmjWpU1PQ7hYAjgbh8V3V6+m9G+hjA/Q5OzNnYcJGNqFj0zo2Y2ATBjauZ5N6/G9Wx+Z1TFHHlHRMWc+UjHTeRGfNdMpC44aw0lErEzSzS0YupPNFNP5Yrz++NpDoCSR6/XEtinvEwoSc1OKQd36DZ3YTdeJLX9/98K6LEwXIkOA7z0OdV7WRjEq72wK+ixpK9SzRy8Bc6ZWXW1EUCcPAT/TxSWK84kCv5jFW/Rc0zgqIGPOSYLcjQ7sDnWSzViGyG+nAa2e79z89f8v2I7Y79g1R5x30vIUJG9i4lkv0+ZI9/lSvP6HjogYO/Wc9m9CzKQObNjBZA5M30gUTXTBTeQuVs3ozNm/G7k3bvSmHN2mjEhY6bmQR1N5AZO1YeM14aM14uGcs3OePaH0xIxu30AkblXTSc4P+Nwf9L37+/t0P/G7hzTAiXQGoiFBpYX4GrYwigNSGbhXti9KRhI5AHqIoSpIky3+dUOoTxFg1vaokX4muCFKjjSqOZAg7MjqpTYC8CHmApS78/ox0988X/nXbkf6tB+3DpweYkJWOm5iUjk1pfAkCTHDN+ELP2LzOt2jkgkYuZGQjRjZqYuImJmliUmY6Y6GyFipr9WZt3pzdk3N4sg53wemqOlxVm6dkpvIGNoUwjwXXji+sHZ9fOz7fM77YGwhq/BEdFzewSfxAdsbCTVm8R63ufTduO7jz6cX985AjSKOHz0vVZkVGZ7wKUBS7GZIEQ5FVFEWF+ROV35Uv+2Qxfie0pCpEAmYCsAhQF6Ei4xUqAYQ68OIU3POr3Ge2nXAiuift7stOJjE4VjHSBR1T0HDZPl+yNxDqGZvvGZ/pG5vR+xYIxkETGzKxETMTNTMxM5Ow0EkLnbJQaSuVUWEmSJfsrpbd1bG6G2Zv2Ujn9FxC4w/3BRZ7x+bJWugdW+wLhDQo0HEdl7QE8s5txcHtWRszZ3ZPrveduO1b53f+Yu7lc+KlEsp0E6Au8225TmxLXUHf4h0PRVEE4d0vvuMdf4H//DUwXjbKapFPAgVT0i2y/8uAYjFTg98c7479ZHETc9w+cso+em69L7hhW9rGJHSumM6b1jN5HZvTcWkdl9D5wjr/gs4/q/fPIcAowRETCnF0BeOYmYmbmYSZTprotBlXxkRnTVTR7GmaPR2zp2nyVo100cigRddzUb0vrPcFdStL7wvpfWH8lbegdRV1nryZyTkCaWcgaKVOm0f2XRvYt+OZudcuy3MNPP46Abspi7yEKloURUEQVg2z+ImTEz5BjAEUFV00XTJWAmVelIW2KDfJtk9LMJWFXx1TfE+Gr/cd0dy6d70v6GRiNjpiZeImOqan4iZfxr69RDystIFNGVEVx81MzEJE1sQkjEySrISJSRBdHTMxMRMbM7Ix4pElDWxKjyuNu4Qp6emKni4b6JKRLprQKcuZ6YyZTpnpJG4LJmZioibcNGEzkzC48iZPzUhVNe78mpFEjztqDsTX3xM306cs7v3Xju31/eT876c6i00oEqRXmSbdbndVfD95q/yJYixJioxMSKzQSUqXlzsNsVMW5DpgCeE/j1X8T1zaRB/su3Wf1T198/1VG5MwUwmtO9TrWtTSQYMvomEWPzVyUc9FDGzcTKesVM7mKTrcFedo3e6qmamSgS4YmJyByRqZjJFJGYmnbWBjmMjkYlpfXONLaHzopvX64z2BaG8g2uePa7mUgcmaqILFW7Z5KnZ31eGuONwlhzvv8GTs3pTdm7B7E04qY3GnTd6cPVDrv6tr29nuYbL/tGXRNJ7Semd0IyfsrkOfHjvi/9H8iych2oRSY1nzqipaFeW/Jb96NXuh5qbwbNRnqwHicupKTfJi6k+QBZ7UiboATQXKEmR5iHfgp6+HvQ8f3ej6w6Dr4Eb/zCAXNLnCeldMOxqz+dEEmnxJHRs2BiIGf6iXmjNwYSMbQ4y9Obu77HDVnaMth6tp9pZN6EKjOBqZrB7DJ1x6Nm1ko2Zu1uK7YPadN/gvafyh3kC0ZyzUOxZE/5lLGJiMicpbvCWCcc3hqjrcZYe7gN6ZN+3wJh3ehGU0YqOSNjar96bXjCY/NZrqYQr68Zo+UNIwCRMbHvAvOT1nLXccuoE95fnO9Osny3OJbk0iGXYZq6fk2qgXSCLKbCVrthJUqr7n8pUkO0S9qFf8VAi3BQkQ5Iq/vwH/6HIsk0QuTzK4b1fS31UIxsyfgOZJKYpKsS5U6gqWEGqA2uxCDp7Y1b7zGzPXeE6t91wc8i70e8NOb9ThjdupuI1CC4qyyCSNbMLIYoRjJFoXn6AqTqrG1ULlLCQuIl5VyubNWL0ZE53RsflettbLNvRUxUlH13kOfW77vn/72t4BdtentpwwjWf76KiOSRi4tJHNGBn8ExOdtTA5M5Wx0Bl009BZQ1uwvGhi1PGQ0gZcGT2rrrSBVa1G1MqEbXTQTi8O0Oedw6+OfvfUs8c6F6sY3NfUaqXYwcSo1AK+g2wDnqR8WiQTT2rUyzleVUIA2l1B3QAr20CUkQBRl1FMVq3Bn0P6Y2GMKVySyH03xuqrq/gr3a5QrrYLLXKeGRmOBeHxVwvu787f5J+2b73Y70nYPah1rd4C+r1UCjGm0SVesa+qlf1zP01oPuNWOm73Jm3elIlJatlcD9foZVomT3kjvXTPU+G9F4QTcXh5BuinW1ffcV7vjRmojInJmdiskUmTlTKhmVe3VMzIRslCPw6ffJjjMTOR9TvCDnpykD50x3emnjpQOpuBoow5vFZXlLEmLkNHwlBLzYarFbXVAjqmShBnNZugRiQEZvwzgnHjL46xQoq3AsnNkhytgHArhPOoHpcArQY02xhA8OREEh14c1545IXLt99/YP3oK+bb99hGzg75ElYqZabyJkpVsxkznSA+VPQKH+rPobuyDxAYExOz0gkrnTCxMR2X6uNKOqZkGY3d/vXUxCJ6vDXAsHt/CG55IGnyhN4P4yth/nAYm5jkmjtmLd7gOt/ioHty3cje27925KnX0qeCeBhYzlKwOIXJE3zIQqeznOZGZJEFIUktUsBGmN+5ZBkJKl3y8p+TYPV3H12OsXQgLZsPwD2J3rECdQWarU5dzTurW7OuQLwKZyJw/y8v3fbAoQ2jLw259l43fvaa7YtOX9hExw1MVs/kycqht8zGiSsbMTLxFfzeH2MDm9BxcT2nRkoxIxvWc1EtlzYyKcfI3DefQbsoABQbzZIA4TY8/AeweuYNdNrEZlfkOGVk3iXH6JCvSHPsQ8kxagUq7/RX14+XB5mYbes555ajNzFHvnLXW0/tKpwIYkm0RqKsBirudgfakiRLvKQCDNCRlAYvNWRkkJEc2moFdtnzWdHm74fyR8cYGWw8SrEiQZdvdPgiD0UBym2otoEviVKqBRkecjKcT8EP/jP3OXr/Rs9h+8hRh/vU+rH5oW1RExvW0XGDL6/h8n1cXsPlNFxGx2GESryqCLG774+uug8MbJL4zHEDGzOxESMXJDFu1MKEBoennnpJxGJIqwNyVQEl14TvP99wuC8Z6JSJzZjQHiPAGIypuppRzf+qBxBFsD+MrjYyGftYU+ctrd2a0rmyA/7yhrFiv3fJsnmif/jA7Q+e+u7Lsdcvtxc6aKpLmBuTsDbJS22+Iyoq5bChYFqFRxBXXVxVolUf7P3Q/bhyjN9KMEZGTLfFyw2BbMYa8FlFLAIkFNg1rYz/6NKN7v2bth65iZvb4As7OYxldZ7w1cOL/zK81MdmbPe2e3z5Hl+u15ft86W1voSew3rAh7V/ejbZh0FR3MDFjWzEwC0ZfIt6X9jKLNi/euSJ56tYLGhWiKpu58rw0M+jTveFFYxR3NW9soJx4gqrrEozOnofXK8YmfSakZiWyhl9VT1b6XMXNe6ChSuv31G2UrOG4besI6/ccv++B/9weXewOdOF5IrXxQO0FaEt1UVoKGirO0SS3sMD/wAwfyw5XrUfmHgnx1IlOcg0wO/PFb2PHr7R99oGz+Eh19TA8Jx9JKIdjms8GT1TMPrLlu0Ny85Gn7/wv13RHn+215/p86U1vpSOSxqIF21CRf0hrqke5RhF2YCqPmpEjJf0XMTKLDpuP/bgk1F0YsQ2yDmxW81V4J4fzTvd5w100sSmTWx6FTyCcZJ8dQKNxbI//+EOBj+NjVvGEnou0kdHNGxKHyjr/LW1VPGfh+Mmf865Lblu+2I/O2He+tJ1gdfuey68fxFmC1AhktvG2iXW2mXoiFhTJYSD1VrOqnF+R03rPdH+OBjLIHYwNBKkdlup84QvV4cjEfA/eexf737N4XrJ6T08xM7YXEGbKzPAtYxMzTzWMfgba735NVRWFyhpAvmrqHivL9XnS2m5JALMpEgVIWWm0TdevfTv+8TAJtVPwJiKiRm5kIEL6VBthK+hZriHLjU6anGg2O62ci3Y+rWTds8FA3pnqg1e/q4VjFdhJgKNu+1DbDiCcczILRp88zpuUeuL9gXSPf7cGq5wFZPX+EtXuSJ97qWhbfFN25f6PacGXcc+43/r0d8ljs5CVkRTjSxijEtFXiIERUUgJcsrvK8PBjB8PB6ICN0iKE2xw3d49LgWCvDDFzP/vv3NTcwbQ+xxJztlY2etdARrPt6qyVvX01UtU9ayRS2b13JZDZfW+JJan+orJUiImTLTWDmweXM2L9Z63xfaK9+goWJaKmamksSvjhi4qI5LG+m4bfP06AOz8zFCfidm7/gifPWBaavnkp5CK2vmUhZfmqyMxZe58jM/8nMTGzNziyZuzuBb0PmX+vzhnkBsbSC5FsHO9PkyOjZtYlI2KtnviQ+5Y5vcl6/Zsu9L/t2PPh9Sa1nowYqCjJ5iF7WkQsIWRU0jqYHpB8L5Y8gx8KAUQSy3mjwvw1IWfvy72hfGpja6pwaoyzZ60cxi9d7IZDHdT9WMVE3PFDFLjLmntA6lNq7Dcm/UQOqApECUUgG2e/I2b95Mv61CP8i1NnGoA6zelNWbMFIRHR3TsFk9nbENL3xp2/R0BFrEvpUAXj4L1/kmBvxLFn/KxGHQpaeieiqm80Z13tg7v0v1xZY9snf+6s+pGZJIj5jZkJEL6X1BrT/YFwj1BsK9gUivP6bBnZ0yMhmLN293F/td5XWu1MbR6U3Dh+68/9RPdhUiTQyxKjx00bNFG43hJzLa2ivrLx87kS8uSVKpK6EQ//r17pfHLuhvOTboSdm8WSNdINWhvJ4pGBDj8mphx8Ci62vgokZ0rMJqEdDCYCneSmGWyu7JfUSMWdTwVk/K4k4YKcxhabiCgS04PNHrXBOnQ8vxcQHguTOwgZu0sQtYq2CiejqipzH8NbFJM176VfBUaJfTI6t+2RVvWH3nu59gjQuzb3kznTEyGCzofCGtf1EbWNAGFnT+RQMXMrExC53GQqe72O/Ob2Jz/VumN3kmbqZ2H5xFjV3H5gDSMYDOV3Nlqexj4ou9pxV++xcfR44FUc4TwgZciMDofWdvcF203hFa7+eNVENL1zVsWcMWdWzewORIDjmLtSCstKsrgkEwg1VeCxOz0FjltVIp60qV10JlTR9SV+upuIGKWzwJqxdLRgZfUusvGHz5QSaxfuvhySUkSZcJZ+g3p2Adc9zKzpHYN2bi4mZf0uJPWXwpq39VV18J8CrM78byvfAm5cuKyVs1UUUTncXqCBcx+JYMvnmDb87gmzdyi6SchcUVwl8oDLANhzt9rT9ovvXlB55eXKzhpuQxbpKIR6vSe0kqFLW38AnkQMQGX+iCUpbh1/tK127Zf4130enN27iulmn0sdU+rqDhMnoWXSc1k2xGYgYp9uGTOMk+YgaYLCznEdqG+hPT0e91+d7rdR0dMyBRK2VnUxZfzOCLoaPOxG2uyzd5D58NQUOGqtLNiPDM4bJz5HU7O2MinRMWf9LsSxjZmJ6O6rxR8vmrAGMqe2VdKeLve3gZPV3W01VUY3TOxKTJ+UbNbMjMIo/MhCtoRIsWNXAxPZPVuGu60dKmbblB94kbqJf2XBBKRC8TihAhvykqoxfN8AcyxUSYP7ocE760UFUg0YJv/yp4vefYeipocKX7POVertLjK/T6U5pl5lvUTmEa2UKrZd2kiU6Z6LRaA8D9TmMp0MCkkG5HjLTOFyF2+kO4sgY2afCnjP6kzZe2+5ImLOwH+9iIllrQf/X48NfPzSfVWK9RVYSDM93bvj5pHD2l8SzqqJCBiRBRTph9SROrgoeFB7IyRjqLSy1WfuCdh+Qh9CuzOqxb4EcRumDKSlxCtdRBujeihDEY6fNl1njba0bqFiZ13fY5y22/+smeRI4kpgnJT81yLae4sOXkA8P8cTBGfVGUIdIC6jsT1zOTQ2xQ64n3Mtm1/szaQLxnLKgNLBi5RSsTdHpjTg9KM0FUVd0FI1Uykvq8gS4S453R+pJ9/mhvINQ7tqQJhPTch8tl6sdSOn8c1S8dNHDzev+8YSzkGFu8ITD9012tQh1I1jwjQi3Hw1P7mwPsOcyWMGE9HVZhtgbS9rHcihx/LIz1XKw3EOxBtlBQ64sY2ASGDN68zVO0eUpWb9FMYalby6WRcxiIr/Xn17CS1qf0uWPrt82u876y/ckTkRba4eXq0kqqS1HHm5AiwdtW972ffXSMJYCSKOYBFhtwg+tl++bj/UzMGihquGyvP9EbCGsCi3r/golbstJhhzfu8OAZmqkicccKOragJUvHFpA6yeQI1Sal4+IahDms8UeMSMVSA2XUnCsUjiRh1yZWUiVY+LPQUTMb1Psu6tkzRs+E2XXETh1aHzh6w85T/3bvqbufCl1Kki6WTgGkZLOV7gAcmYPN3znz79+cufGus+u5k073hG30lG30vM112UkFHVTERsWItKHuMaKfiNGdugj/BE0MKT7iT9XcmEhCVD1OrS+xdix09fjS2rFQnz+q45LoRVN5q7doRYxLZqpooAs6NqfxZXr9qbX+/KfohvVu6HElTZ6Z68Ymb9n+2pnkqkkmkK6kQXCEzV8G4ysK1aRhqQxKHuAPp+EGz5HB0aB5JGuiywa2oMfaQBh5VUjBSRLqTMpKZQfpunW0bGRKa+jk1WMpzT25NWPRPn9UT0et3rjTk3J60jYs/WY1TFZDpWye1BCTd1CZ3s3BNVtDqPTG832BtGFHfg0Tvto9b2TDg+OJAS5kd89aRieMrpduuGeX9/HTD78Y/s2hwpvT/Gwask0otbGIh+N8sKGmiwU7GSotyEsQacPZpLzvbOPZPflv/zw6fNfUtbe9sfGOiU0j0xuphQFqweSe0bovGX1z1p0xrT9u2p43BjJaT9TgjgxwmX4qady8NEClbe7EurGSw1+4emuoj0mZd1Y/xaT+iU5fFShqd9aNdze0gcJab6LPG8eyh7pxicEiRkqlM2R0/mwvndZ6Cv1ceR0dvMb71r5ZUniWuyLUQGkvp0FIKegvpKtVjJczaQJATpZSAE/urm8cnegfSVpGqyaqamQLRqwKhIl4Jc3oHqOMmumsZThrHck6A3nL9mTv2NxV/gtr/dOOu6MDY4khNt3vStu3pm3uXL+/ahkr6+mMk8nbXEmLO9k/Vh68q2keL69lEv/iDv7T8KVeet4+Hhwcm7O5Jx3DRz63Y9r96OLz0/KbCZhvIwGhBdiRgS03MsikiQ4J3GK32+X5riTxIAmo8yRssMMO144E1Q7EcnBuCZ54vuZ7OHiD56hjy+F13IVr7g7ZA7NXjZxb4w320EmjP2cfK1jopHEkZHdHrwkUhpiM7s5F/XC4f6zk3F4z+Is9TPaf3XHzzqrWl7naHV7rCZsCKfv2rDWQNPsw1Up8z4QJ8c7g9aFzBiZtHIv3UhEDVbV6G05Pep3r9LNH+SyWK7ok99XA0i2pIatq+wO6XR9WV78NswCQEZWwCNufnBvccrzflbJ5GkZv2cjmCRVZxThlptD6IsuCSZndsX4m6mQvWzwTZu+bNuaQkz1hcZ2yuuaso3HLaN7sKpnpoonL6H1hDbOkx5R12uzLm/1FA5fXUCk9k7L4k+t3JPvZS3bX0Y3Um7c9MPmd5zMHF7AEEhGwNlwjvihP5hCIPMER9TSv4BIlReQFUcUes9dq7kjE4p1EApWqjFWghRq8cg7ufjp+09iEdeuxQXr2xnur/eM1M1fVeXM6T0rviRs8USsdc/qSNjQWMb07aqRTFl9B40n3ujOOsbx+68lBZnKAOe3wnu5nLtjpSxbvjMMXtmDEiNxv4tNlCQEth35ZINHrDdt8Lf1w0e5KDoycuv/XoQzS/2QRdXZLxVgRiU76S/pcyxobMZbgQgm+cu+RgS0TA56Mk2np3AXky2EEHCJy/DbGRiZpZeIbxiL2kSMbvfvc35165Pe5h1+sbP3W/EbqvGXrrH44Yfc3bOPVPjq61nNRw82tYcK6bXndWH6NJ7bWFTWzqX5fsp9asHQfQR8AACAASURBVNxxbKPr8B33n/re84nDsxBvIyVb5VOoDJS2ILc7IgKMWx0pgoLSkklDuowJTXl5fIHKXsBcoSJ1m4JQ6SrlJlRboGAHG8DFCrx0Du77Ve1z2y7qv3zc5g47uYKdzendcb03bvXnzFy6zx3uc4cHdpQtvkzvSBADfSpuGI1s9C3czOy996ezj+9qfeuFuuv7kfXeE4Y7j60PhGx02EwnCGEIAdari00b/fEed6h/vKvdmrO7UwOjZ7Z863hMwl0rqOktIseKiOX6v5A9fofrxpMq3Z7L/M3s3sHhMwPeXD/X1rqzOiZNGM5hM6au0ityjFlJC5NyUHMb3Ie+/svQVAjKaGRgKgoP/671hfvD2q0zejpl21HWsDENPWvaHunZmf4/geS/+OL68Wz/jvygP+4YueC8/a07753+/m9yJ+egLGDhraNAtV0sVmMrRfeO6ooqOMtH6orYetZR2m25IZHpLjjuB2cALRfoCSdDxO4V1PF5GfINJVsQynlpOWES7sBzR2HbE/Gh0Qmn++IAszQYSNr8WR36DQVDoH61O6vnilpP3MJEr9mRHGJm+11TX9w5+cpb+UgOuwLiLXjjMgQej61zH1/PzdnokJlOXsmM0COxMKnnor2esHO8rR/JOzzpdd7pzwb2nC8gO7+LW5NMrMBJOKR37gNq6o9Tk+DJTn/0tfB11P7B0QtOb87pa2vcGR2TNHKkMZCOWyjM5xF7jOGmlSsbt87dzJ3cfwHzcmqXdgvQ8fnh661rxqbWbp7UeBb0TAQbHcbjfffk/l9f+OpA1H5PxsLMar785o3UxF2Pxc4sQraGk3hkVL6dbjcFkABIKnxS7ubFblUQeJHwJzoK5qhJZkgRQOgoTQFTvqTuLZNUP9bl8VBkodXp5tt8sqOkJCgJUO+AqM6fqJG9UwB4+pC89ZF5x/BBu3vKyUX7RhNrXSXbduijWj2ugtGbWBcIO13Hjbe+ePs3Tr18soMNEWQQUJMk154+CDcHTttGpmx02ESTTgAGM7565O6nDGxcx4Y1VNTqr5k8JQeVWU/PbvLsevW8UFzOhJDihIxSjPz0d0jcn/vPu+zxOzznP6/wuwBxGUa/+9b17LF+1wwmmbmWjsoauJQRM7Ehkn/OLGPM4ra1MF3zSOYmbnrvBVSt2XK52S2UW/kGwPk8PPxy6uYdE4atJ8zueTud1HnjPWPJtdtj+m0hI3vBMnL437afePzF8sUo8pa7XaxqKnwL+1chDRAFJUqwEFXCqAqP2lYTb2BPOhkPwwsyYVagvsNxMq0O+jMC6VpRi/MdHATQ6UKjJdU6SotMdIOOKBXbaKf3XBICPz77mfGjQ/RFqzepdzcNFBgoxeBpDPmz66iz1tt+++/jz71wLIHROPCKUM0Xa1URVcRP9vAbvUftnotWOoatN9hTWTRg0JhSmfrIjOCSBrpg46o2b3qImh8Y3v39l+JZBS+XiGkPUnQiHZEfHOQrMV6Jsd8miP25vdIBWOrATYFXr/dPOVzzZnfWyjV0dMboTxq5oJkNIXcOO8mIHLMJA5PVjrScVGsTPfeLg5AUUJRFqLWVVEXINwEWa/DQbxavow4Ous6uo+MmV0TDLNnuipjYs/rNe+546Oyus1AUUTNj/x+ytttytwhyQdWxbSHfFsSmgI2EORGWGjARh5dO136xb2HfuWS0hi2R6EWLLaR4y2KrAb/bHXxhf3HfqfaFOGbrCsTyYXeaInfR30ZWHXo6Ug2Q598u8a0qwEwJHvpt8Gb/xHpqcZCu6jZXzKMNu6ewjppfN7z3yzteev6tpRzyLdutblaBZpN8bJSHe59Jmu9847q70iY6RQAu6xlswDEzMSsTtDJLZi5qCWQ1npRjrGbyJJ3eBfvmA+NPXE5J6HCQxDWhbeJclD8vgO8Q6z/GeJXM+3YAttqiI6rd4QoIvNwG2HsZbggcHPJOrfelTN68mav+85ZFy3hqGWMqafXmLN6CmcqRImPGQncNwyXLyOxXvr34/DklS+SuyKclqLTFigCQKMOjv4luvON1220nPndPfoCdtXsmTXe8OvKdqSNLeJ51ZCQABjt8SejmAUerCOroCLVdMNyEXefhW79Ljnz/3Gd3vrHe+9zA5h9/89njBQXNLu5ivoNeqoSDgNgHTwze8ernAwe/uHN/4PFTT+yJnCugZ14mlroNUG/XJKEJcgeEJiiNRjvBA84UirXglTNw6z0Xtf9++MZApn948UZ/yHbrrlv8r+2equYEKLQrArZxCblOtwiQAvj1hPKv957WbTlupEJ6Jq9lKjqmYmAKZjppo8MOet5Bz1vRV00ZmIwB+3HSDjq8iT3/aW7/ZAyKyzRMXpSastjBQWIY578Dy/f6z7swfteY9mWY3+7HEkhyBTFW2gDPHG5vYN5yei462bTenTP7q1eNLpnH40ZuycyEMDGLGBcJxpgnsvvqNqZscC3a6DO3/eDyzyYaMw3VaRTr9SIqIxkKTXh2d+PWnaeNX3hl8M4DG7buHn/s8rFFQoKRoSPg2BceDXBZgVal2yqJ6JJkAc7l4LFXM/c8HfvKQ9Obxk5aqeNW+vgAd/ha/65v/Ho6jyQpclF4QmwWodEB7ochy/DEAD1pGT4w4N17rW/3lu+eGP/J5GvnW0uk5oOXEfeFgnz3ThnkrAKVpsjXFaQjvnhM2nzf5IY7dzm+/NKmra8OP3DkucPlPBke0pL5utzNK+icL0nwowOFG7YdMI0eco4FbeN5ZEkwVR1TMdJ5C52w08F+etZJz9mYqBpQGUgVxMbEhuiZG5i3XplCV5DYGOTyCXwT5I+O8eostFXO9tvSLJGBPLKEc2NFAQcRfu2ZsH30qN0zb6EyGnfOMlbvoSKmsaiRW0RdTaWs3ryKsQFLKyEDFbT6YiZ/pMczvWb0xDV3n7n7N/EXJ+qotEUQGtCpQbMDqQYcmoUnXy1899nk95+OTM5ifRoZ2t0uCZFKAKW2XM61W2qf4+k8PLa7Ofzd2Q3UIYf7mH70dK9rupde1GHxbqqf3v/t30XQbVFHkPAS6YmFGg+BX2TN7LRzfN5EX7DQ07rhkw7vqUHP0c9vO37PU0uvToqxKirrRhsaNZJ/IFX6ZrPeIVNBygrsOV34xk8PP7Mv8qsDsZNBRKIkQpnHRoZ8F+Y78JMj1dsePjrA7LLSbw3uWHTsyFw9GtWwZS1T1eNog5yVjjuoYD8156TmrVREbQ1RmzDMVMzpnd/gPv6Dl4pZGccqNEWkNvPdKsg4A+ejybE6Z2p5LBGhx7+NMd9FM4BmqovSnG/B5m+eto6etlNRkzfX586bx+saLmrwB43cgoUNEowLmHync6R0uqCjLurpy4ZAxDCWWEsFr9p6zuqa+NzY0R/+NjoTQrZ2swGVBipVbNJWIFODXAWjWmz/aMsKpiHrHTEv4IxFFN+4DL+dhK88eN669U2b67Tdc95CzZp8CdO2sn5HQzuW09KXTMN7H9tVLAOOPyRWfHlkx3/lOuifRXvcEwZuxsgtObfnzWzGzhbs3qR9eNb21SMbN+/a8cPzEwuYfUDuhdpehEkUbDcluTJ8PV5rlxU8mBo5pGwHWeaFDkwGYeezkX5mz6dufcHpOzW4Y1Hjne31hs1jZS2LzH49U8DWG5TjsJNedNBLFipqokipDXvsMiYqaXMHB0dPcz+YTQhQkqEu1hRodDslxBjpae+lnt/x+pW6WuW9q8ySK8daLn9St4NDa2QJhRgUmE/AZwOHbZ4ZO5s10iUNVTKOVbW+qM63YPTh2DMblbZ5Cph8p7ME43nnjiUdfbHHM28IZMzjVS2V0btC/Z5L1ltfu/+nkaMzkK6TqwlQxmlYOAUJCbMSNBrqDA2pK7XrfKdFruZUBh5+KfOZnSfNIydMnlkbEx0KxO0YW2eu8ub+mSquZTMmbn6D79gvDzaw10i9KKQsJxOje+/vUib2CPp01Lw1UNa4q1o337e1ZfN2rt/W7h+5ZPjiy1+97/B/Hq8uNHHbVVqA343XQ+nyNV4sK6jOGm3y2QUeZziWAcI1+Nkrtc1fO6O9bbfBNbnxrvCme5JGerHPvWjkUtgiRZIe2CmJBUdsqbLSESsdtVAJE0WauzgcaWKgUxZXrH90+tZ7Tl8u4Sc35AbheFVAQifhI2OsjoZ8B8aShFXqVYzVuUtvnMxc6z3oYEJWJm+gK3qurg+UScv9nNE3hxh706SFaRljvW/Bvj1sYBd1VNjE5cz+mp6umJiS058b8i2so47esmP/z/bEsySjU0VQBL7dBgX4dofvEE4lQKneVaX8tVMN93eOb/DsG2LObdiRcm4rm5ic1Rs1e6N9nszV3uJVdKWXzVq5uWt8R148wWMWDJ0u9MhVUkUJ4Lu76xvGJx3sOZN3zhEoaz01HS1rvdAz0hnaDtfd0xri5k137hly/eHuXy2ezqCA4tRbTI+qo1NLspjiuwmAhgByTUJpnivBI7/NXj+yx/bVN/qZBbsv4fSnjJ6wZiToHC8M7ij3DAdXKtNYuyTcAaRRYOWKwp9IVcDJNWkDnbF6MgOu+c9wxw9exk3Wwmi/hgYLk+wfC2MV5renpPE8RvMCSQ2qQ9wFHn723OT60QMONmbw5PR0zeBv9XGFPl9IH1hYwThDCqWrGAe1TNTIpGxc3sGVrFTR4M5q3WktnbTtTPV4Jv/5K8/d/sjRyQSWExRss1Fb4Gqg4PwU3GQizvmpAzyzK05/+8QN1P7rfOeGfMG1mxeuHk4M7GhbXKQm6CtaxpvG8abRl7HR5ze4X989JSAbqrV8Xl1Q1K6nbz3fGByZtG05bdp6wcHFtZ64jivqAjXDtub/vGPpf37lknNb5sb7C2bXWdvo5JZvz5yOIKudB6i3WuTw6iAWQShjnN7CQCPLwy/21j/re2Od6/AtD6SH/FmjK2Oj8g42r9kS6r1zwc6kNuwoYckS6RKYr8bmRyanMqIsTBZLHctjH9NGtmCjiuuo6DWjh5/eXyazKFpdGaMJBPiDtqa+YwbbarcpFmtIk6saRyndNo4oEkVRAWjxYkeCcgO+9uhR5/BbViahGU3pqLJ5rNnLZDRcxDgWRp+LCZPhGwWLt2CiM8TniiC7ls6YvSmjK2FypaxMweyv6APF/+MJrXuoZNt2Zoh79Sd7ogV1h2JysSpj+IsJjHajoZDreyHUvX3smc/Svx8aOWAbOWNnYjZ/hTQipAa5+AATMVKpXk/2anemzxt10Odv5A7sP4eBRqfZJnuFF8ioryLA47vEm7gLm5iZQWZpaFtOQ8V7mWQPl/7foyHrzqp1vNA3smhyL67jQv2ei4ObX/vmk4eiuQ56f0JXQtpzHeQyToVTxEqp2yGUmK8/G7uWPTzATfVuOefwlQzugsmbRzPPZAb82X5/SjeyYKWRv0aKzTh5SM/ktCy2e1npvI3GVmkdG9FyKT2Xt7HVdUx6cMvRb/82XsDvE+rdLEBTbksfGWPCBCOsEpJmwDn9qNxwvpiiQLclV9ogVADORuBLgWMD1AxpLUwbcURSBmclYSEdO0eQroVV0jRyekg/P3IQmYiVCVuZiIWJmcgEQy1b6mPLfVzRtj1n8py51vem91v7kD4uQKdbF0BsK11JEhVBgE6TlH67uUbz9dNh98N7Tbf/3u69uG57pc+VvWo44dhWNrtm+9mQY7z4qZF4D1t03F01e89t9Ow5F0N3ndSVWmT0oSST8SO/OtZZz+xf57tgZcImX7mXqVxN5fu4omW8rHNFzcOhjVT0Wu/ljaMn/n3nyR2PTc2GsEleAmh0G6VmUsLEl5qB6fA86uuTC/AZ3+tW18H+nUv6QAzb25kCBkLY+YH9XViqYcOEy4ZVRUIhwktHyEAZtTXXyEa1vnCvP97ny+iZspXK9I+cHf7WhUgXitiWx7fbBZAVqSV8BHus2ilMmSnLvucyxiCByMsKtJpQrEK7ALDrDNxETTmopfeiz/3x69gczIRszBJOPmNwIJ6ezWnYkoat6NmyiUkMcTObvPtePN5OEXPDS3xNXHEeFQnD0y42aksgpNowmYJHdtVv2HFeu3nKxibtgXzf8GI/GzS758xcRusracZqvUxSN3rmy18/fz4Bze4qxm0yEA8twrPH20PcgaGxaYsvYhqv9XLNPq5pGe8YvBnLaGi9e/5G6sK1Ww9+MfDmk69Xk130/MWW0unyEg53bYjYzFAQ5BwoDUnCrFiwCA/+Nu30HrJum7+aWtQimSuH40ewgytsWJ0rhS0XaUITyxGY00bUcCmbp2DzYmVW6w/3BmK9/rSWKZupnGP00n/cd/Z0GhOiPCgdvoKNhALJdr3Dg/7T/3mXX03UPBFhkjBQxzwgP6zbFhT0HmtFaBUAfvRSdcPWCQcV/GMs3+sVE2IcttIhK1ZPY0YmRXQU5myNbM5CL23yndv60NmkiMwN4kYT5wgFuiVLauK5AtCRSYKxCjBXgycP1P/j62fsI29ZRqb7qch129PGkfleV7yHyuu3NXX+rM419cUHzk7ncCoU7nqxiTR0pSvJ2EX0/BlY7zvj9J/XM5e0vvhV3swad8XEdkyuzLVjiU3eE0N3Pu99+NiBWUyI5wmTBIS2rHQl4AVot5VKV8pjoCfXQRRlGaoCTEThS/ef6/dd0Hjn9GxajxinkVLORVaaMVWOvorxKhUwYaZTNmyxzxnZmM4X7vPHsMOPQW/G4Z652X/spTMdjNAkUcARrORoPlLsxJM/xsuxgjHhfcrQaXVlaHcRYD4FsO2HcwN3Ttip0Hsh+sevmxjsHMfWGDpmRncjQ0qneQNSRCJDvrnruGMvnET118RoWD0NzLdU65VWh1xKDP87PBlNX2+jRKd42H1B8j02fR11fL37wqB31slEHOOlHm9a4ytat+cszLnP3XV8pgK15VJykzBEOgKINYDXLsM1Y3N29pyePmcMBPuYuMZTsDHVjf6s7c6jN3O7vvf7hQtFzG5mAZItaHZIMhs6LalV6TZbcpd4CG3cN90WSNAUcCs89mr7Wt+knZk1MQk9DqDBSRKG5UEXam8cdkisLLVlEjG2evNWb87ExPRcROOLa7i0jimZ6Gw/Nb/ec/DRV6IlgDKhr6CmlT7o/YuulGMycFatWr2NMXmGctwlmQfMvs5U4Y57J4eGz9jp8B9j+V6vEIyRL4HhAY0Ak5JLxsLEzK6LG9nTW791PiZgzhJTLDholEdvWEKZ7pIZwjWhU2uS6os6vUASJRnj6cUi/PgP5c9yx2x3HsX69F1Fky+tYeIGdsnGTN727bMLhERAJBn9a9xC0K0AvD4L1/gXHex5u//iunujjm1RKxMf4mKW249u/dalF042YyTezSmQI3NbZKgJSrbOVxqSOtQDj03oCsgmaVdBRmvdVOBSDr589+SQ57SVjmAr0DKcKstzhev59osqZzthwhaCrBVnV2ATiY6La7m0HhPamX5mcWD04LafnEtIaB6QpilLikCKFH9aPb/j1XdivAKwStEm8BIVh3c1E7vQaoFUwlIE/1nu8Hr3JRuew/tSyZffQEJAEjOgr5E30AUjnTfTKTu9ZBs5cbP/yC8OtFCIFWh2CKwCTpmQRIhkWhdj5SwhFFQENIpYIhdbIFagWQAyLydUhheOg+t7oX7Pyb47jhs90wPbw1b2nMW1b8sjkxHyt6Ro3FYA58q3cKYl7J2D630X+72n7NSpAf+01Xva7pq83neKe2zp8CJqlKICqVatDXwb+DLm14oNJdcA1POZFpyZbS5EulgEE0To1pFTp+B87SrA13+2tHH0TSe9sEojNxLS1vLPZeCvaHomI2wsVAbpydgQq478zBgYbPpyMkuO0bdu/+aRqQyG4LjDRQGLKx/M6boSY/InKyqeONfLr+CdkkBpK60qSAWAH++OX+M6tM4zb8MeoQ+FMXI0CcBFA10y0XkrHR+gZta5DvkevTiTw9i3g/4MNjPL3QbIEE2Jj//qxI4f7HvpTDsiQQ7TPICKtpOFdhalsd3utjCULgK8GYLtT2duGD8+SB/eNH5qiDm4gX7Z/+OJNEYdKjEA2XnkFhRCA+BsDv7jvqlr6WP2zW86h9/axBwZ+d70D15JJSRINKFIJplIWKeuNuVYG5INKJaBLwMsVuGnr8R93zjw7O+DTR4NCumGxCxFW8RQ78gM3HrX0UHqooWOE/pwFklt2DCBfFuiwzJkBie2vJJxccvsXeSwkleQa8xkjDgTLoWDgtwTN/r3/v4MXyCsB1EkM5UxN/v+jz+JMbJ4CRF/RYh55EC1lFZRVnIA9z0zO7Dl8IBnCWvdHxrjtJEuGJA6XzHReTsVXkedu5He/9Nd+SqpFDYwrSx2WyW+2+ZlODFdu23s+bU3PrLlkfOvzMEiuakPKu9uDuppaJVB6IIst0EsEF7K2RL8/HD7jgePDGz9lfPOn33xrhefeG1epWmSdDVPUlVSVxTbgINrfY9OfnHbm9cMv/Zpej/7/XO7LyLlgDT8qhUnkAW+28mLSkyEXAm6aYALZXhid+lm727L558e/87ZkzOYCVdAFoSsDIW21Mo25P8q9+788bl19CkbHbZScQuVMVHY2EdOvIQYL8eZ2MOOPTKEoU1agRLm5f+u9pGkTNSS1XOmf/T1x/eU0hJU8UZlamXhw2L8Np9TpbIte1uEMaCIcpcHHCo91wT2sUuW2486vVELEs8+hBzbfRmjN6n15K2BNvYiu5IDbHid+/i/+XddTEOuiZlCCb1pQRSaHRGv9b0/Onaj99VruWMW16FP33/mqePtLKkQ4CySSh7qZayxKXyVx5l2ZSLNcREOzvH3/+zIyAP/+cTL50MrVUJyPoSLS85UIFnBqQT86MWF8e8eeeyF4LkkqtmaAl1ZwBotjlvGCR0kLq9kG+k8wKwI9/42vsF78Ab/jO2rRzdu3v/ky+WyDA30G2odKSVCoyK28xIcmFU2MIcHfUGLO2jxJrF5wFux+zt6qoz8HtXZxtlQmEtQKfikjR2fW6i0OqgXmblMUudd3LAzaNy8m37sYhagRGJ0GZlIHx1jde4WCb/UIVEgC0qnQygXE0n46jfP2baedZChkh8G44SVS5qopJ4qmHxNHV3Te1ID9PzQyIHxRyfjdXXet0KKS1imbgOcjsDwg5PrvW8OBc73uSZ13hNf+M70I68k0zwy2NDhabdA5kWxURUqLUK/UpkCSL+T8aYfyQZulPZy4o9gq25lMqqm2MYqdEmGTBd/Ngi1C3NYeH+ntlQrYy5Ggnq5kckiU+VEGu77Xa6fesviOn/93ZUBOjbomtr64PSlPNqCFjRaSkaASkX+rzQgTGXgS9847aTP27xIXTK6cmaqbmFberpKME6R0TbLM5jVdhA1fYQONoUzmK3eHOnAThjYcP+2kH7r4dseOj9TRrcLR/1g8vSjY9wm6gqrTHgdMVaVeGg3MDkLfzgHN/iP91NLVjr3oXpHSeYrbKRjBraoY6paqmphcg7P9Lrh15/Zl60r0EHcurLcEmVeBChJ8MM/1K/jTlk8x/u3z+gDM730ea3r5Ebu+I9eqS0V0L52umKzXZNwZgVh5Sj1hlhuYgYIf6uu1ULp27GC2tBL7rpGGvShCXJZaNfFLp4rzrLBAip+qtCVBNxPlQ5MJ2H85xGb58jaO045xvIGpqz3Zgd9ofXewy+cEksAFUXoIG+3WFMKTeDjEtz925jNc6yfvtTPRPXDSQfXMpBhCjggn0vqfREDGbWNBFYKB/IS1KNm0pHs8OTtnpwFu3PjRj/SLoyeszdum3z9IiqbLoJLoo73N8dX5qvVDY5/rN50haTK1MIElhNbdZByAI/vqTi2Hh70pS04KHa1Vff9NTZiTC2a6LDJV+zxFLRU1cblbaNT13lePzKHotbhW6DUJanR5rsdgPkSjDwStbguGOnzlm1zxu1L1rsSejpk885u8pz43gvFSxkMtFReJd57B/Ouag23KUqter1aqzc6PJbM1I2KN0lVIVRTO4Qy0BHFllxto/4r80pVxntCrDBGZVkUlUobZfR8DNwPXrAPH9JsnRrcWXLc1flfdybXenNDd2VNwwfv+1UwD5ho5EGoS4WanO8AxgjPnpIc1BsDzNlBNqTbEu33dzSjJQNT07E5LU5lDhl8QbUF2UIhuUeP3ZoRC5WxewpOd8Hpzlmx1Bg3jaV7qUWbP9hPTTyxp10GwGI63klOLbm+D85X+Fyq1CLG6j2TyK0SljEWeJyZB5Eu3P3LsGXzMSeXN1IVkod7f3RVfY7dH/S8kV60jJXWuHJapmbzFSxbJ79015HZPNZRBKEKSlmBTkPA4GTfRfj0zgWjN2TxB7XM5T5mwbItoydjLO3u2U3U8Xt+OTuVQRtckqDQwlQi0crouhES5nKqr9VFrbAqzXh+q7sZC4Uij9mUsoQja/7LAcAsrkC0YEdE+l8R4LWzsPkb0+tcJ22jWJ6ybcME+9Vs0XRX3bY9phs++JWvH5mr4kdgSYqvNcWSAM0qwKE0XL/zrQFmYpBbMI7G+v3tnuGCga3p2CwOPfcFDb5F0mwQt1JZM53R4dxsHJ/icBcHXKV+d95G4RhO41jmas+Sc3vG6j5979MpbErGFEjt42CMLAySGSV2DEPuLo8cDZiMC3c+eKrffd7szRqoGgnwPzjGUQs7p/deto4Xrx7N6Ni6lctZhyfYR2fSXcRAkSsAJQX4hoTW9IndBZv3rJaK28azWm9I441Y/AWNO2NmCv2BrH7r5Eb24PafX9wz3SyQIZQdvENYQ+IrUqcmdZoYsxIOC86mJMXWNglgyf15yMYnUaKMyetWSyrXuvlqu9AVO0i7FvB4moSb95vjnS9/47R5+C0HPbfOn7SzqR53rIfL6u+urQ3E11IXBsdPXc++tvcC1Mh0lnZX6AoNAepVgItduO17Z53eN/vpizYqaWfrfaNFA1fTshmtG2GvKgAAIABJREFUL6bzLxl8C4gxHSemFzHW+cIE4/LAaHnAhRhjrDyWucobtu8oWDwXRh+eCdeRnCqIZQLP+wjxO+f6vC3H6qCyLu53ldeFTGSs2r84Eb2R3bvRH+zZkjBxLZKo+sAYsxG7f17rmbaM5de4M3qubmbStpET33ouVyZyholfJS+DoCYptz91UTd6oo+OOcZqenfeQlUGx9sGb8bqzxmYqIVdsFNnB0b2jnzz0JEZpBB0MEpdKaeIitgUhJaoENdYHSpbAamKt4vim+Q+nSIIrW5dpU+rgo6uptxuiM02GZ2U6MBvjnZvGjtk8R5b97WIhp51sgnjaETPJIzbc2sC0f/PfaGXm9p099RGzx+e/EOyiZkiQFKhJElSsybDEkDgN2Gbe6+DOjvkz1ipktZdQoyxahLFkSDvwDir9YUIxjmnqzyIGBdsFE430I1l1rAJQyBn8c7csnPiTIyoPfQBPuTcW1Rgy93p6n1liWUiulpBigsamMdfm7fd/vq123Kfuj1s8TcIjQHDO/XWHNiFh733y5lYrDaSgiOZ+54ysrH+QEQ7etkSKK115wz+mpGO2kfeemJPvY7xuILVYj7LK2KRh2ATbn/whJW5gOPKxhs6V95Mlx3j1TXukNYXNe1I9dHzjsDSet/ZdVt+Tz+098h0Fj0sQeabHaytLhe+AefRkEmFWUKATSiQlCGjYAqaNJggC7ctLt9Ek/xRu6XU0POQ4LeHa7dsP24dPmVhQhouquHidi6jHw5aAynT9uQ/uWf6xpcGvhbVu4+sc+/92k8Xqgr2VvDqtB1RaCsQAfjGq3HbyG6768KmbRWzN6+ns0ZflvTuxgwc3nSGBMfYMWRkMjpkSkXNxB73u/JOdxbtMZPQB/K9bEbHpCyeizewb7x5Gd2tjtRczmG8jyQrb9tjtTWEHCEZIbPifIKiiFCvgxyRgPnRxQHXJfNI2szkdFSCtBdjEcmMg53JjAAcX1s00iUDXdIzJWwkxymYOCRRx6YcbNbqyWjcBR1b0/vLZi444HnjD2eQE0WIWzXgqxJxBw4uwL/dM2EemTF5s1Z/wbotZ9iW6B0PfWps/l/G5nX3JMz3Jq4aPm12T3z2rsmNw79hHzmQ6UIT72IpYaqMwNVoo3xXSUVhb0j0/OjUf3xjgvpx6Av3H/M+fuZUCWu/bRCaooDyDhKhDlSaYrEoSMcX+S+OvzG49fS1Y421t+d1VNs6xluYnI1NWP1RYyCs9Yf72LCWiZqohfXcuS/cc2Iqi/umjjccxJYkkeyqZ86UbZv3OUaC/XQFW7/8i8bAZZz2wiTM3qrF0zR7ayaqSErISXK/ohQm9um4jYpZKRwHY6RzWqpg8Vc0w0sbA3ODW1/60avh0qpXrRKKr/y5Ajl5Ddlrb2OM0SZZEoYhXTxGdc4XZmuRaHKuAl996KJ9JGhxl5HaQW60YCaFQhVjM501UwUM9nEIRIlMgCigf8FlNMhVSzmZgs1b0HhKWq6i8+fM/rn17IE9F/H7MDEt1aFV7QqIyq6LcGPg6CC1ZPGk9d5oH7W0hp2/emxp7Y5Y392Z/2fzJY0vYfFFNuAciNP2rzw3/M2jFzMotSCLChYJoNPpNARMWOYA9oeF8WcvOzwHjCMT/dysfnjSwU6MPD59uYE+syp4ePNzZD9UO1KtCfDWHH/96Eu6L+y/cXt1gGs5/XzfSEEznNC5ono6ZOAiepzrmTFxJTuXGWBmPrPj+PEMbhoc7aDgJut05RzAf54tDGw51D+c6KfqiHHgkiEwZfLNmumk1d2yugSLp2GiCjjzBW+ggFrQhCPRwxYmZGYiJjpNMqA1C1MxucLruUuDwy/f/8x0sIOOMWrqK9FVn38wjElgqdoo/BihAZUKwL5F+PT4MdvwkpNpGLzYg0Xm0hJFTSgfK7dRypmpnBkdRZxyghkc7LXFiQ4OJmVlMlomr/EV+vwJU+DSddsOHYmoGAsg1KBZ5UkA9MoUXEvv3zS20O9LWHE4OA7b0mLIUdMybccYrN8G69jG4EjY+ZWj12ze881fxsJVwtIVujK5EVi9XW0qyNs6m4EHfjt/0/bDxpG3rPRlk3fByoQGAtEhauJn+wqhMqKCWX5JlrDOxTf5TkWEqZjk+c6+9aMvrKcPm0dOrA8EB/3pddvbjkDLyGIndI8n1efNm+iqk8vbXGc30bv3LSLVqoMfhukynscbkL10vrZp+Oi6kdQQ1bBQOWNgRh84Y/Rdxv4XT9XqbiAFnY6ZuHmjbwGnXyCLbxXjqIqxhWsaPAUbneynpodGd498+9BE7I8wXoH2in9RiN8tx2omgYx5FnGTqCU8Ml25BPD0keKQa791eGnQ19J7cRwH0S1odMmgfvW2OmkLzthKWqmEjYrZqShZEQcVsVMRGxMz+5IaLtMXyKz1hUyBCzfdc+RUFq8yluWEGnSaMunfeuWUtMn1unN02uqK2jwxJ5se8Of7fQUbVbC48sY7k/ovL9pvm7nJc2nzPdPf/XVmktzzEm873G5IOKKp3hAreENzCZ49ULjOs8s5esTJzjj8OHLXzGT7x5oD3qV/ZQ/sPdUt8suijMEx8vEwdKoCHA3zP3htduR7b66nXhhy77GPHOu5/XzfcNDMRft3ZAfuKjvGyyZPTr95cT39/5f33t9xVffa+P/xXev95a77EmxLmt7VXCFAQuolkICbypTTZkaSbWxaAiEBkkBCbkhCCARCKAZjbGxsYxvLvcqWZKtO7733mbPf9ewjCWO439dcIPeu+3qdNYwHSdbM5+y9P+Upl29n9+67SulNgE6miZgVm6U8IXvHy3eYT68eCHXb8homrhqakjkvKh1TKt6ntaV01rSeCei4Wa1wRWOfpFK/IRpjj5YDSZ/igZI6e7l9INppjxss46uZI9917n7nTCG7kHFRRMfnLOeFAvFTMV48jzF9xghaijFG60BORAh58q05Y9+H2oG5bmcREEYuSIUR43QMjimpmsPMhKKFvQbGY2TcJpur0+busrq7rW6Tza3h3EqHv90ZahsKLrfPqocu3fXQx+eT2DAbtTpAGo2qCC9psvNYbtWGXXdwsZWWcmd/3LjZY+i71jkw1j14duXg6L9tG9v8syu//Hv0vTPkrAccc1T0VEQ0XylUxXiTJEskXSIkVCa/eT2uvWfvWmG2d8ivsLkVTFBmTazoy+sHo7ofvvvOx7VoBeYMDSICt0bVB3IVZGppQlx1cipcef1U+Jf/mDM/PbZ2+KTBflJuPdg+eFBmPq61jXfz3rWC9zbu0re5/Uem8S2lFjDDYDjX8EMOTjTutp5bOxDusuY0bFI5NNvmuCJzzEHmh0lC5of16LmreuGiVrhCtbqCUpazoDUA2aiURii39cc6HSm95do6/sxa867fvhtcLEakykfqY0ippvQoxR6Pn5zHEvGxJmG5lqomBBytgakC4Z+/YBo8qh2YMwlZBROQc0EILnGQXZKm/VTtxk9189x61m1gXCbG3WnzdFm93VavyQZ5PbnDv8IRlGKsGbp4x/bDp6M0xo0WJu3NWqMBXY63DkfWrX/j9oGZVZtDKzdPrxsc+57zvPnJK4+9NPfbnZ7js2Q8TBItfGOR5hBVQjLVIhUEqBSboTqJlqCWDtH01w+RO8znvzUc6uQ8Cst855a0aaSssJRNluj3hFMnprFkMw1Sa5Xr9Rwlb5NsoZWn4gw5uqAzhEQqZCxMds+Q3x7P838b++7jH/ba3++0HugePLXafK57/f61G14/eKmaoR4ADWrNLVbxu3000foec27tYNBkTau5pGLEs9xxDTI/fFTFpLVMQocYX9Pzl3XChBp6bFAL0QDW6NGyfiiXsSklV2gbiOv5pME2v1YYWznwwZZ/n/KXsf0sdneWejxLIZeifmOMKWUTOzjtdUt3AwVmYuPytu579OMe5qy6f07HJdUYm4SUGPUnVZD7iFJEC4q5Rac0D0X2+AxMAMY5EOwJK9hghxBegb063OFw6RyXbh85dMyLewhsRAghVMCkqpF9p6I/tr9x1+C++7ZccP5m5tdvBN8aTZ9xNUJlfHAFSuKDW265XCyVW/RXpnsTNPGrrWhNjFaaWbCjRHJmhtxjv9S94Zxm40W9bQZCUvawSUga+i87n708l8a/nm2UmiTXrCeQe1CgBOWMtCqkkalWS9TNt0zTNzch4zVyPN54+3L+6V0B5umJHzmP3yMc+t7ga4cu5JJVOv+WCKT0LvloovV97uyaQY/BmlBwCdlI4FaHa4U9CqQik1czGShIAso4q+Xm6Efnk2IM2gQboHIwKTmTldvSSlvUyPp62fGVgx/f//D5yxHkMXRUWqdSJxA8ua5JLwUbbaBP1rEIOaYmlQVajDHFQFVofbn7SvVbQ0dW8RPK/lk1AwFgjYBiiVLIsVEroZ8FCXmIf+IRREWwp9mIhrKQNUxczkRkXLSdjSocUZXdbbRfus3x4ZFZfMo1KcatSoviOk5Ppp1Pvv3iXs/eS7XpDGoSaSgEp4y6BJMuUwfsAkb44Oc0G9VKtV5qoQWUE0mu3iiVKwBYzUcJ89jFrvs+WGs9/90dPk3fGe3Audu2zHb1733kj6P+PD6pYgN3DmkmxVoSRxOplYpZqhyy0AwjNVIpNitEzJFGljTRQCUk3CLTScCQf/eqe8fTB8bcJUxWqJE59nxKqPxosv49/sSqwWm9NajgI/ItwVvt3hX2ZDtXkDMlFZOH3BH1gkSZhDQWtnDS8tBhqBxTsUmZLa3ksu2DQQMfNFkney3n7hJOH5tDHUS5YJJmQk2682mhQO8yHLfAfF0fY1AS62Jd6hdJjcAGfccJQn67J2Tq26ftv9TjjMktAQhUAeEAFVMokFELJgVcOxZd0IRgmxDuEKIqZ0oznFM7IBu5YrPfaM+0DwCfdvvDSeXGo992HtxzASR/2lyvEbHcajWrLYzBk00SoXCqAt2QS3XgXcFqg6UKVFpIhU6OGlR+iYoKUGkQqvwgtpqVOo7XFollyegVsu03V9ZsfG9134HbmCM9A7u/u23/tj+fHguUUhXqsYN7uwouOUTlUhQZX8IIQxpoYJ1UCOXTgFLWypSahVILU5BSCwzodIWkKiTdaObRTUnXsPdXa7TQf+2I5zvcIcP6k8Cw8t42YVa+JaTeUlxuza4YyMrMObklruOzBqGmtGSgqwsrUI+W9cKhGXY5UBBWCZlb+gJaR0pudvfavau5a6vM5146gC1t0bSy0cAnUmthJFtdDPPnxRgsslZNXNzJW3gbdRjDi+Thl12dA8f0limTPaJiQx1Wj4YP6FgfSnXWrwEEKaAQAjIBivLKrYkV9tCtrL/dHm7jg7daPG1swDic1Fr8qx0J3aBb03et2zahuf+De4Y/3PlxCjFGbVchYrElQg0b4qVIvhplir2qik2EEubI9ACSpF/rC9wjcMbFeqtRbpJKvVWrV2kPZHGvqjfRY3GlyJ7T5Gd/drG/OPXE3yb3T5WCVNUfhOsqAaEYAOwmFfRJUaAAAOVItPEvNtEGbSVJJUKqUVKPiI1ks1EBsL9CiiXcbGX0zEs1zK+idZKoknyJNAOV2ssHJ+8d+bBr06GVwpU1O7z6LVPLrVeW9bu0fLZ3S6PLWVbbogpzTGWpqGxlSHQtxNinYyRLpCiOQiG1zBzQDqU6zG4j7+1mZkybL/zydWw1QFXgI5GEfuoLvQ28GdrcED+9jmmrqdyCSzPNylsQxclDjQECTRueON9luWCSRIjtkTaLS2cP6lmPgXHrWC9izKGUkkFaPryM9XXYg6rhkHo4oHK61c457dBsp3O22zp5Gzvd0z9m2njyTu6s5cnJVw8WQ0Wg6KDigU0SI6OG2KrQAFRIJddIFur5BYWThXKA2h/B8bzQrOdhgtSqwuVPRESABCtTtIDEyqtBW6ZUx+2dF8l8glzxk0AFm38W3WV6Kkl+ywsMokatmaviZ4gQi6FbIQoT7M0ROqpJ0nOZElPAHsRBUaeVZgM9rnidxGskW0ORgJTQVSQvH0zf/9Apw6bdusEPO+3HDPyZLn5mlSPUyXgNFleX3WfkI4qBrNycRy0quJG0sksxBpdCKcTa2KBmOL58cFbDujtZl3r9JeZpTyCL90s15GAIRdc0dMk+WccUhv3JXg20I6qkxRg3SQ2cHnS+906QdeyhbuZajzOusHoMw7EV5nm9M4RkgXVpwX6HeCk1I43IhbCM8xm3hvXOueWbT7b3He20nzayR9vve7tz/fvr+g/czR67Z+g48+TYS3uzE0HULeUGwXBIlNIpyB5KBnUVkP3TVZyqdbwTUSzWa7lKsUJqFNCMQlbSdJbUu9MN/LUhgjcDGF+92SjG6JZZLcNtHLxy6VsqpJIsBiuVMjZ/mga3CnS3pliDRAsN7STtaedp4lZoFEu1eL2ebdTT9XqkWg9Xa/E6pEWQolUqpA4tv2wNAU7RIwQHc7JWyxHiLpA3R2tDz4/d+/Chbw2/v4bZfZdwavXgCfV9+zQPHOxhzxisY8oBr9GRp1B7xJhu1NI5CKyunAt28H71SGS5ZVbNejp5v2rD5A+GxyZ8CHCDcqMlwA5Gjgtvie54n42x1InDN9WQytDDWEwR8vt9cf2GfV2Mq2coI7O49cPRdqtL6whS9o6LynwHJOo7rZKDBsGrt02arGe+OXy675mJR1/zPf1O4Jm3XC8fyrx9vHrkKvy8rkZQtKDyaZIqrNyLYitLxLxI0y+cgKDbJmskVSX5dCuTEtFSkDAAQMVSplGEKrKedpM9Z8g/DpEPzpZm4yivQWSotHC/NtCOIKRSqeHWqDZJHYITtVorhWUmjaXq6PLk08iSioTMZciu8/FdV8ofzpKTEXKtCJIEtm+a91Gtf7GC+VUlW6/la9igq3SM2SLlmpiuNPJNGP+iOSvNNIG7J4D7X02S43Nk38Xaq/vzL+7O/X5X8lfvRIUXJtbYD8o3HddTVwK6jmE1p2dCeuQ6QF/LOK/M7kXHnp1T8V6jPaQdcN1mPXv0Yh3nFQHTBzs2lXRqQnhsUVyOSvJ9ah0vxLgGqFCL7j9F2v0YeeGKfuNhk83b6cjKrB6tMyRnvSo4KbkVuPzYZNDtQv8SJ/TARPfg2cGnXG+cIpNJcK4jVbzPeAtgdEi3LNa1dcrzhI5JM0NEpM/UNhfHDJSUkOrUizSi4SbUEmeq5Hya7HdX3p7M/+l47Ofv+pwvuDY+MfuD4elv2c5sfvjo829PxSiDuQhhCboLN3KlQopquErtXQreFvPNapqIzXoF+YfEVioRMhYgP33p4irzy73M22sce7/7yOjAc1ceeT3w+32510YrJ7zQmJovL+zakssacgPaRWghA8sA6UBPSBEZX71UK+SKpFBFapanQHxsJADj43NIEHI6Rp47GLn/mUnV4AkYjAiY8aBLaJNiDBxIB+9qt7tkGIS4VHav3h40MqFVg2dfec+Hu7kFljvIajXJtU86a2mkEePreiA0ty3hs6jQYTqdeCdJZbpIfvLIwV7LWb3Fp+NSMFKx+9T2oIzzyOyeDoeXGruEFTAUiOmYELxPN18Y+Llv50m0EksiKddJPl+v1AH6zhMxJzZzzWZO2nVxbJVEMSWKSdpZKtLdBmu50gSjYS5Cjo/XPjxH/nGY/PK1PPsb/4Yn57770MW1I8f11v3yzXtkG/er+0dN1rHV7IXO9Tvv37b7QhD3U6qShUFIqyzW6SAc3NpSPh+tgpIn3cK1eiVTrsRFZPGYGWcIee98pWvjq6uFURN3WsUcV1iPqSyjJubsGm7iDvvUd0YmH3j82tALs0/t9P31aGzPpfyZeXE6TOIFUM2oj0GEHtsLHPAWsNhAiUtFSrPZAqC4XCENkohX8lWgdeKE+Ah56xr55o5TGvv458UY9KcVwswK+4xyBB7rKtZr4qMrB88/8qvRRAYfL9Yx6GjUgBM5s9SkrCOan45xqwV3mcUzm24CoUrtfJTcKXywxjGttoQUtrSSDys4r2EoIGNgWwRajj0ko/oHajaqZwLdtjnd/aO/fL15NYYaokClkkhLbDXKqVqZbpFYx3lCgjkSTNFEqdVsiRUKUCqJIhgu9SYIBwdORR9+9uPvDb7x7cGDd1guau87J7t3rNPm1aGVcdVgH+8avtozMtM9PGfg54y28W8KJ+/mdx53tbClV+hRgPpJbNZbtUa1gawr0yKpZi0NVB7KNSkVyxVb2WglnyJk9+VGr/ld/eAptfWqip9W22d1wrSBnTcOBox9AcOAy2iZNFlPGQcPdA7svs327r0ju62PvnUtVEpVsvQQD9BJZl4SIW4Qkq22vJGay19L55EotAgpVzArL5YbNSKmxMpcORcmZKxE7n/6klaYUPKY8WjZoB4N/wDGFbxH7fC2c7Nt7IxmJKDgPR3meSMf7TFf2jSyZz4MPGEBByspAfUoNltS9kgPaDqV+GSvltRAQAoCHryBfYwat764P9xrPayxzsjYjNxeUzqyctarNF9RWi4rBY9cCFEt/ahycaPuss1o7j+6/c+Zq0lg6gp1Eo2J5YLYFLE7BQm5lCBvnSUP/yU7+PjM9ue9L+/J7v7ID1ZkqdwCrxBAinK1lWsQX4X82/C7vX27VtlOr3H4NBa/Fv7VUZl1rmdbUG6+pGUnjMKcvH/KJMQ7WU+P+eOh3497aC8MN2ujhAQZJnLVOqmlmsEMCUSKs3UxU8nl6ZlVlHJMyM1Q3ZYzEfKD7fu6bOfXbEn8y33jpuGEQXAbbPNd5kiPJW6y+XuHAx2DF1du967aGpJvOP/t4Ss/2X5wNodjpdjwNkS/KOYJaSUz2VyLfHAl8/gbExse3d//0yPP/N237wKZjJJAWcrq8eittfwtEOYuxIjjD249O6dA3zBKRUJgpUy12Vy0r7lgq0KR2LgJupjJu5gP9l0AQkqakFabpWpNcqCg+BBp1Cheh8uUZhJUqKyFA7lRblAU+6/f8HeZj6kYdztfWM5X2/mskg8ZuGsGdkLDeajQIwQPoBfHhnSs18TMdJrP9z/lf/sMCdTxToq0+xPJk91nK0++EfnJT6/ebr/abXWZ+udWDox/y3qCeeTwsfPZQpnUgKLAWdyiJ7OrQp7dG+sxv79KuKS1uTR8avkA7AvbrB7DlqCCmdDxU3p2XjXo7nGWTDbfGu7Y83sTkFvD6VQH9q4Bpkq91ShgqlXLkWoRaBwA82rA+WArQwVEm+R5QqZL5Im35nttJ7p5n3zAZ7AntGi8e7ptccNARM/4NZyn68HY8sE5uSVssAVXM1d++WbSXwXWoI5gJRutaokqtX58LXvH0M5ex5Fe7niP5URP3+id7CnzL64+/qpv76R4NgaFzzC93HXyykfV74+cNTA+JZtVsXFqNefWgqsNurae9cI/Hd7dUQnBqeaCRvZq16ZdLx3MxWiMKcGtXKsnkLpiVWOtAvrw2RiXUIoi3K16UVrHD//hcmf/ET3vVTpLt7KlZbaUUoga7S4jP62jGr0S0IcOPkPIF7h5Zf+lTuvZ+38++4u3S68eI2+dqP9xl2fbcyd+OLRn5eD7mo2HtINjBtZv4oK9nPsO++W1G9985qWxhTkuIeUaSG3ZJgm1yFia3LvjkKnvo07WZbRnO6wZGZdtZwPqIZ/SPqVzzqiZWY3V3+ss6wam73vs9AkfdgsUidkCOijNEmlV6/Ss9ZTJ0anEh+cDR86HJHVrqI40a/hAANOppykK86iXfPfBU5r+s13OoIYPKm1uLRswcSllf1Bl86pYn2kk0z7gU5t9JvPV+x4eP+0FMJR6F2OEUWmWo/l6npDH/nxBP/CB2nLBxEz32Fyd/bOG9Zd7Np/9JnvyRw+dYH978fE33X88UvzrKPnp33M/3HJZ98ApPROiLlgwSdLwbg0/r+XmtRx+AcqciEnioxTyHDJyV7s27fzNmy5wwEAjAjG72co0GxlaP9LRMcWUf2qvrqFzuyDW3agVa/QE2/rcmc6+gybBrR0uLWML3wBSJ67lvRrbNEbC6HMtObhLLFuPVphXWC4buItrhy/dNnTym84ja217ND9+zbjp/W7r8XVb59buiOmGYu0Wn8rmWu2cWcccsTx+fD6FsidXJaUGGleFFsClIZH8+u154/1v3uaYMzBR01B1mTkht8fbeY/COasdnleyszou2MlnlA+cfey1uRjN2MFiKRZJEwKIwDiIyGDfOJYdePTQPexb3KMHxuYhAwD8ZbVQq+RRSou1HAZPxNsgI3+eVm/8oGdoVkUJ1goQUlJya1jOeHTOyLKNvpXDxVWCv3fg+At7S0kRP6oOAkC5SQpF9MDIpQC5W9h327Y5UEMsIROTXuuo3u4s91gD+k1jmg1HemxHTIMf9NgO3bXlymp23LBpcrUQ09mg2U9hcT5al84j0nBLCtHhRIJiQqAQrsBWOrnGvOtXr1+jeR1JFku0VyfJeKNtuJjqfXqvpnRBqWaswVe7ilLm5y+Nd23ea2SvaRzJNi67nEnLhRTmThaX0eYz2XwGxg9/Qw6oAbkQkNn9quGgzO5WD3lU9pnl/ec6zOc6h672DF1bOzLbxU+pmOkO1r2MC97Khdu5gFZw9fBjq80f/mV/IdYgsZLUp6nVSbVM6pG6eDFILE+eWG05aRic0XGpDiatHM7eyvra7C7lkEsN91ufxuzvHDy9+1IZVawkGUD7z61mukFaSZFcjhHbL2fW9Z3svvejtQ/sf+j56fEAyrOmWCuVI1K3o1yHakiCkDfPlNZw7xnZ0ypmRutMt9mSbWxS7kjI7T4lH2jfFO6yxXsHLwq/mppOIG2jvEUCkdZGuUB/wjNvRU2bj2hYl5JPq9ii0lxSDlQ0gyW9NWNkIgZmds1Wt5G7ohw432X3dPFRnSXV46hSU7cQYDM81J1VuLwqSAZDJFfBpuVcWi75GQohPT++zvL273dOZWjJm0KMIUdDE8m3X8m9AAAgAElEQVT/IMYirZzp5wPRYCI2S2V8x+sfJdeY9xit55WMB04uQkZuzyr5uJaLGG0Bk9VvtAV0wO8hxjJ7oN0RbHMGb+Hcy+2Bdmf4GzZ3G3o0CY0zquP8aqurzeJazvnbtyQ7HswqtmXUIxG9MKveeLT/5xNnPWgUQWu2WWqSfKEZyzZLOUI+vNy8mz+w0nZx+QPjhuGccji3jIuusAfbeY9uyIdDyzq1+SnXNJU+LGNO2aLrOVtupMq0PvnzgVbnA2fWDAa+LSRXbrqyavP+vx0GYhyktUZMxFGaqtUy0hkxmSLW3xw3mD9UM5P64cIKJn8rm5KPpBXDgTbzzKrhfMc9F+6yjR4ex+eDf00CzIitUhMl4LUS+cGDZ42WcTnjVTpzuuGGiq8rrDWltaLhilohjcR4OGAY9irZOR3cKYoKa2nF5hQGdKxPw0kujfMqwa2kQl1yLiHncEjJuLScT8j5iBwg0Yt3sW+9eSSYoVGl7Bgs0kajICkDS5+CeL1GOWg+IkiDLbEGmrzYyhfgrH3BQ3607aNV/Em1bUIlhNTOTAebkjEJnZAy2CJGW3DJnEtBh05tjoBqe3K5M7RiON6xJbvCkW5z5tsdhVsGozJzTCek9Fuyyi2pW+yh/2Xz/H+Dc/+rb0aNov7aN7mzf9xTDVewMipipSEma81oDXhWkhDJr9+a++H2E4qNowZHUC6k2oV8uz2z3BYwDAe07JXVQ2MvHUd+V6YEf3RU0JvKFkRAhk8FyIafzWjvnzL2pddwpTV8VLPx2ODTY+NhBKmGdmoEHRpoqaCxmiLkTwe8q7m9BnZcI+Ta+doyR37FcBwtCO7aKrv7Ntv5376ZTNdRglH4ShnJHM0T58vk94dy+oFRk8OrtPtkjlA7H21j4go+qx0qKvjENwbm0dPgZxTOOYXT0877FY60eqjWYUsDyMe5tBxc3FTCPC1bgkCx8Ska4AwUGPkI5rbCvEk4zTzz8SUfcBCSoE0dfNtqDQMWxHFxtHTdXi3iHoC2e6NZqYN6JObz9SqFy/DPnLx7y3GD7YzePq91Rtss4eWDYQ2fAVTFFtWBjxWicyd/h93f7vAvF3z/anPfyofaHKlb2VS7UFQM1duZgpYvqdlsBxu5lfHdIviXb4l2bE8rtmVWWANdjpB+4ynrL6ZmU+heNrASc0CyNrP5WrFIyEyWmJ86cPvQEbX5gswWVDkqSkd1hTncOezV205879FTl9K4OQp5HE+VaqBJInWSyxEAqp95J6t94Ni3HqwrN6dlm6LrHix0OaaVD7zzt8N5X45UkFvTIUU9T6jia4mQw9eK3xne281eVFrjSnujfbiwzBFoYyfWbJ9u/9Gukd/PR6q4G8r5HGlliJiu5CN1Wn2djZL7fn6ho++0zhlQ2OdVIz7VcKiDD7SzAaUjqnKGOwSPeqv/G8yEbGhO+2DwG8z8LVafzJ5tZ2LoVHNzWn6WxtilEHwyISzjE1RDlQYYXh0+DT+jFcZ7hMO/2z2fIyRJx+RIB9DtrdcbJToowWdIP8ZPxRiKTXRU1aD9ERFQZRgUkkthYvvVeUP/3l7nuE6Yazd7VEJK5yioGRhRUSuByIKNnh2dVXr5ZSidqUAVcLhZFZNT24B8gFi5EGxz+JbDDzjUZo8utwRWb8t0mSdMP37/lX3ZvEhi2YpIGvSXblSbxWyjmCPkhLe4+alDPdwRHePScHmFtajj0quG5zt+8sZTe4PItjB8RBLdEIM1Eo7WYlCOv0rWMUe7bdNwjmKgCQ67C2Gqkz/9g+GD41ESrpAKTrIqSqgyPoBiA7Opn7/u6Ro8dtu2wvL+qMyRaOPn1jziUmx6j31+7BKVPChipy4TMU1ItNFMlAnx1cjwn6bV/YfWPRb53/2XlXbISirts0phnjZ9PXK7S+6YW3JPlTnmaR8p2CHEFHxEy7kBCOFn1cKcUnBTSZBoB5/s4FKmbdXlA772gZm124OKgROK/gPDL3sDLaDYipgeoR1ASyXAd1pQ7sEBIp0hn+TV9EskWjUl59KboUYbimlCdp1v3PvwEV3fB7c9ONc5FFjW59I7C5QVn1ZwCQXN9Cj83wucMExvPTB55gIUphldEDm2ZdRMCqAR3i+3u2UOT4c9IBMi7daQyupfybtvZ85ufPDw/tOFMiHFGvpzuXyl1gLeMtlIpgg56mn+5PFjhoFzOkuwk8ubmJBqw+EfPnToiA/NbmhpVkU6/U1kxHCWkKt5kPBWMudNDCoQJXw53Ar7rMI+oxcur7Edefoffn8FIBN8RFLzC5bDqEY+GCN38kfUGy50ChHjSMg4Mt22fvePHx/dM1lJ0eldsVBsVXKklqg3gmUCpO3fT2a+8+BZA3ul3TbRuSOsFqY1/LSGn4V3JvVVV8IL2SW3zyPYYDd55LTbr+AjKgCTpRjPqXkXhdMEZUJMxicVfLrDGlZa3F3CXCdzRtu3Z+MzV965QqIindpJk1m8gQVBUDoTWYhx4/rzmMa4QTuYlLVJqUNNCkIrwsqJ/GFv6Jv8e122oz3OabXNo2Rici6FLGDBuRpLmbKkvRQCLsH23Eab12TzdSI1CwF8itogqOFgH0ohaj4lF1IwYfmgp4tz3711VnfPa8zPjgSLaCKXW+hoNohYEdOZur9E8OHuHW/1PzWr33BWvX787q3+3v49D7900V1FnDBVA46t2CD5aDMbJ+SNc7U1zMFuZlLPetS8W2mfVTiu0mtGK1wzWc6ss+4/MoudGiN1qiZBaJezRMhsmmz9/VTnxoN3bZ3TW891ccc3/fLC2+fR7y5AKL1UqxZJs16rF3PNdJaQiymy6ekTusETBsF168DYykfjWJdAdFA1I4DMgaSgUoQh6AhIvCFYisICS8tGgNFk57WcS8V7FND1CclgCQ6vQvmgu9fuWS2M6da/e+/Dh9842/TTAwbJNMQX6LSBJlN0uo4AS+Cu/yjG4G8uIXabtP4rEDJfIE+9Na/f+KZucPSbD8UVNr+cj3fAeB6mgcgFeJzKag4WODrWY2DdxgVoprvT5jYwEERVwqA9oGO9etath6Av6B4aPq4TYvKB6dVDc6ttx3vWv/XMawFfkcTqCzCuchPOWjWSkVize8YI/6xnZd+RO5gjd5hffeNjH3rTddqHqJBGo5oX4So73yTOP04bB46amBkdYky9hx2TSsc1pX1ew89322eVD3y4469+b5XEyzi9qpUy3euQ28fr5P2zjbtsOzvXv7Xaup/73fRxL1gXeaTgyTLmDeDDpsuNLAG16cFXL/cKBw3cNaXNbRjxy20zOtqc0kP4ASkLJYNBIFMJpWAUu2oGzppaJqG1xXVMmN4QbogQ8j65EJQJETnV0VRagyudoXWOKdPGD74j7P7rgVighmyFJozUXGJJDYCSrKWNehELct15TKMqndMUqLbY7SRoC9YlTd2JFBn6w3iP9WCPcLVzCN6W9PeI0ABLYHqoY9J2K5BANJYeGk6XhqMHjB36zBBfR21NDXOZsM6RUAqRDptLzc1+c4fX0De6evDIq6NobvtrSAiQO4DzUGwRMdsg0QaZSJJf/H32LvOffuL8w7UI0K61WpE0GiKEYkisjGC8crK+ij20yjFhYGcBV8bOMadBRgMxRw3n7RwK6qxj6/jRPVcw9KRTwnKLlOutJpjEIpmKkf4dr65+4JknXpkei1L4NBDU1TJ4oSU0Whq4Eefr5N+Ppnrs+w3CBdNwQGHzdm+Nr9g0RV1SUzpbQguzOgnZGAVUGeo+aRWTpgkN/q/eFtHDM9dHARc+FR+Q82GazcTRvrZ419jdnZuOrOt/99nXZzwZZJdFDIob1NhkoSOLj6mJBFKiMVFrSQyTP3UeL+bbnyxiengDlAGPK+D/ydko2fz0xLJ7Plg54lXx0nFCyViAZkaXVKioB26YtjkBGFbxboXd3eb0tjn8Ch6W5SZrqNMSNlojOiaisSf+tX9Osy3RzrsV3FzPsE/TN/b9HZOvnK65qalKAd1YjEpa1VK11szRbepqivzp/dM7D1/M1IB+oIiAvFgrN0SIZ01myOCvptru29PjnNJxM+gIAkPjpxALFPQQrIFf7ay278SWP2Epx2qkRsqlZrzaoplbjYQLZOfhiy/tPjOblLJ83O40lYFwQbmBDlmCkNfOimuGjuj4i4YRn4xx6xxRpcVr5GM6W1ILf1TMUSBjzIeWIqfkEio2oYZCWQTLnfFKuzrlDQXoV0awO0KfK9LJ+Qybz/Vs2Pfgbycm/DiOavVGrZ5t4aanixl4j4XoLfSwMNtpSQZJn4qxiPEXWiTX7dXob1IgQzFdQTsiQsjfTpO7t0/obZc1/AzVgMR9R0U+Y/QOTSnZNEiLHPZwyrUNdtj9bU7vrcPeZUM+mRCErpglRumXUA+Us5FbrF7ZtsTyIegKa4ZSnc5sx/qT397x3t7pfLRJ0tQmCMOdVIaIjUqrnMeAgURbSLNqLZKJZijiLt1s5Ksi1F6e21lfYztjtF5QWce0/JQWHiYhPUQ2UgZr0mCNaJmQnAspWI/eMn6XY/TNk/H5XLFCcmUSbZJ6pQnzvnStkRXxD6HJCqGfhtjIo/hstSolmIcEyuTQLNnwzLUVG07qhiKakdRy67zWEdKYg732HPU9itITyo8cyu6hFYcPQhECbHZVvB8i0NwsYPTcNF3EELVWcAgwFbWOa9nQSsHXtfk099TciWvAIVDVtxwREyK0D3KAQlC7KkxLaeZF1/F/GGPIckmb9OJ5XMcbbKRbzWyT6oyF6+jovnqcGDft6eSuaLk5DdD9PqSsqJTQclOyWSWThTg9l5Lx8Q6B+vs6A8uGfMudfrkAFWuDNW60JAzWuJaJtVkC+u25f2W8bcOxNkfilsGgYbiits1ozTvve3z3wSmMGVI5gLgwL6Iz6Gw1WiXVVDVHlWlEsMbR/ShWG+hsXYuQHwgnjRtO/PDnqRUbz2v5OS3nw85pyRjNOZM5Y7LEQDQaDmocLoNtsqvvwMDP9sxkWgVSrpFMnVSylRykBJqg6NRICxACZCkVUsvgd6iBzJEl5Ki78ePHDyn6jnRvibYzIZUzpbT7Zda5dduK6sGQmpWoBUElzIIRYzCMBS9kcKl8ppr3aPg5TM/4SR1/FX0PNLYiKFWo+7eGjRiZ+XX2K3c7j71xDAd/DZ9AFXA1DBVzC9hGaR1LHWqaftFWZauGcvA6fPV1i1dayNIjMjaqDtlotBrFKk6+CiFT/srf9gVX9h3t5T0aZrbdNqPZGpWPxG61BRV8Ss1kdNac3pLTWzMaJqngYgDhwroeDW0olePMDsONkQpcq+BSH8IoGhTWMC0kolrO02UfU/ft+/ET47vGMYaLYXRXpd46xWatgNt24QRqNaijRrHarIrEnybPvea5c3Cf4YGPupmr3XbIXYFcxGQNTL6TyXUz6R5brIvz9u6YXTF4xGQ729t3aO36v/1x52QaKVWhQJI1UoB9Lo0sJaLTT45ufnVq0TJXJjsnSN/zV2+5f5fGPgHXG0QONBE1j3OBYlVp/ryQQgN9R6cLcO2m5th+DIbR2JrT8dNqYUq/w/sNdqpDiOqGKrLBnKIv3s0F1/CX1tp2vnw0HKTEi0qzTkfjNNoogxcX73X50+JAAoyPT/Uyrw/sDc9b2B0gmVkBaRt/RFH0xsjDLwR7zBe15ks92wPL2JlbOY/mwdwKtBpSemvKZEkZLaBtqViJZk4T75vWbIPtqm222z7bLVz51o6LT+9Pz9LDL9kqN0i9VaGxpspbYqtVaoWrJEEbGTDaPDxW/PUbc8JzE9/ffl67+WgPP2lip3TmCW3/mHbzOf2m06bNJ0wDhzXmXVrL2/f99NKW5z1P/mlu9DLQ/FQdk8r80H4KprAU4IaaqlhLpcrZBgA6b46RO3ecWtH30apHA0o7WhY0uh4sTc6jprkxNTSXUtEoOCWglUS0TETHhEHtBAkBuu0azq3hXCphrn1oWr7Nt5wJrBiMmfhKpzVh2DS2zvbRs+95LkRwZBRJoQy8WG2hNlo4Vm8I141/vf48vvH/ffbvNfpHeh127zNk4xPjxsGPeoYmO5jp5axPPZJdZgH1XceEDUCrgEuh5MIdQrxDgLjcF9JsU9s8nXavzjYh3/TRnduOPrMneCmJWhY18JKrIp2i1DCTjFVJoEGiZZJJtUqBWmumSE6GyK6J2lPvuZ7Y6Xrk9eltL1/Z9tKF7X89/+gr5x977cKrZ3Nvj9XP+Ml8mvgSAOcCQ1hN1WHpmq5j34Y5SIsiPFt1bNFlkbgy5Mm/z97uPNDjPGManlphnlAKXiVUH3BJSROV5w8tYVUl/Qw13bcoJ5vSstkA/eKFb1QK3luZad2OeBvjbx8MrNtaNA1Md28eHfrdzEQG2S69/8qAiosNWs7T1PizQfrMK18sxvhsW61qtVqnjJkkITvPN+977IS270Dn0Jx+OLbCGkSmwIcWWq/crJr3KPhgB5quUET4IjEOKa1+pcXT6fSv2eY22o71WN/b/uLlE/MkkEFyCD2GRTlBKt2SbxFfi7haJNQAN4WKTVMgoITVjRCADkIUW5OkIwvJdk9iUkkNwCb6IBWKCklXAaes1ii8H4pnFQBaTk2Th/80uc72vqbvYJfzaudIQE7rfuzDCyHEE0oAi1LdI5RM1AgGKFqqnSKJoOKRfhoLCioKPrLc5lU6Iyoh1OUMrxJchg1HB5+cOOkmUdp3o46/UpNKqia/0hg36J/r7w8RIiFoUCDNPpb+4Y5Ro+UcrOSEmGYoRaX159T2q2o7tC/QsuETMj71hWKM9NIWVdgiaj6kt/t0zKTRfOou+2jfIx+/cSCaLAHVXK02IL5Yw3wPUScF2j0uUL2+Ri5fTGcrhRLWY5FehRrw+BA3pvP0fL1ZatYLpVy5mIGLQDnfKuWJCLBRuQW8bJWUimK+QfWUQ0nylz2hDY+c6tq857ahS2sf9HYMTi8f8PTuqKEKYuKSegJlk8ZofxfizVJZDCITF6CUNZht0BTVT7NUyespqZDkU7ikzBY02AOd7KRuw4F7th176zhaLQk6b6Ub1kJCjO3l5jbqT2s3XR/DzzwXRVE6lZf+T4u08s08zNJq5A/7Urr1e9vvP7X6wbSMgbSFwj6rdFylHaU5zE94MJW/YIwj+qGinE2usAQ6bD6dEOziPT2Dl1Zt2M/89MjVADhRDXTxGtVmqwHVa7zrZqNWpa5Q2MyXOnxSTYttFx/NwuxFhL853QJTdMScIo1sI1+EOjrtMFQo2yrbSlVIqVKvTbjKtw/+YyVzopcfM/JTWiGgtieVfEZmS6uZtMaW1DKoEdRsDK1HPiFHBRzXoFVJTyjKSYSQCC6vQvBTuGMUnWAuA/VQNqfhCxDnYqY1Gw/dwe15YW/YX0IrpkLtPZAG0cK23mhV62hf3mSUv8BeLYpivV5vwDgBf+qNUqkWzVbBSBsLEeHZyVW2k6uc87JBAMFpw31ebp+nbylAy6oY3bJuVs9LyUX0I6U2JrGciaiH0lpHRjHgN/bP322/eq/zw4kIdpEqlmil1BKr8LrEOQ0hn1K9UKpjTFpvYq8FNLMCQlyzDCwiQL7leqtYbxVL1Qz1WsMuDqC+CORzpYK5RoKCO0ukmW6mqohx/ezV/LeHDuuZMZXtqs4R1A4BH7LcnFKyRbUtC+EHW1zLILdSUi8fGQ9TYA0VScS2zPvox+Ki0wiP3E67lXxUhhhn5WxByRR0tlwPF+syX7rLfuTpN+euJmhdXq7hbqS5cquGJxgiUHngrzLGTfA38afVgk7j4lKWoHCFsghb4mMzhH9uxth3tIufgiYEcD9SLYS6SMmH6H51swFWcUElF1lujbQLqQ57YgUb6bAltLZkpznU23fxgR2jMzkkX0mIKFbi1UahRSIF4i+ifyG1LCQecKPWoALXVRrdEpVywNgXTiTUebQktiokV6jHsqVEtYWJU7YCt0R3CnSbPCQowLZqtsi5a8XV7AG9fVrj8FABmqTCXlQIJZktp7ZltLYkBU3iMFby4Q4hIhMiahZZNO1UI8YK3PoumcMlc7hldvSCgOjAis8o2LzGltMPRNewvjWW40O/G79Mx5d5ULoqjVIGhW6TzhnomqZ+3Z9EYjEin//fL7COP/MDmvjIarkmPiYoN+w61+x/6origQOrt4T+9f5pmTXZu4PI2eTyAQ8lR3mpPvPNhlnJh2X2eJsQlRy1lHyyfbP3NmfS+MDxgSdO+ZokQVoxkqCkb/LRxdrI06M/f/3ya6diY2nUNrTSRV8XBf0i+1piKOYpfEvyZkrQr6QIAZBKL3nIgQvk4d/N/PwvM8dmWtIPKTYarSZxhck3HQdXbnetMF9ROzH1+5fNfv2WupzBwFTLgCMCdQe4QQArIbMH1ZzUA4DkFo0xbXU53O12t3okJBcCyy1eORfR2NNKJqkxR9ZxEf29xyxPXh2lZs9gUouZRjUC5KGEH6XFsISEp2XyZ2LyeS98iRiLYgsUTvyzJdjRkFCdvHQoc6dwWLn+1LptRYNQuXVjUsMXdPaUwjrftSUk0RtvMrVGcemI/svArHpLXDMSX9Y31ymE7hwOdG889LePKyGaGMdIca5S+MfotS3PnrnDvGudsPc7Dx3p+/X5B/869dzu4Fsn86MzZCJCQhWAQuIUnRmjkGY/IW5CpurkXJoccJF/nIv9fv/coy+PW35x5UdbL95pO/Ed/sj2P17+x8fBMMUPNOsgnv5yV0bPndTyYzonfAXVQ+ll5oiSS6sxO4ro2ICWhQqAUsBoXGb3UTW1oIZFOo0GluCX2314fSR0i3laxnn1wzGZ1QtWsT22xhkx/uTk5ocm3/xYDFDRmbJYaEL3P0nE/H9VjAkERHH0t3L5DLgYhFyNkV+9Fe7efOSurQmDLX3r/REtm9fzSdngtMG+QGG96RgH5ULgFvOMfmtMzszrONdqx1zvwCjz9Ph0nvgp6ipOyHF/+v5HXltnecfUd8TETKjNk+r+i8bBC+u4S9/bcuX+hyc2/3Tc/uzc8PPz2/7k3fFScMcr4QdfCQ3/1S+8GNj4rPtHv5z89iMfrx3Z08vv6rLtMw6O6vvP6vsuaNcfXWPZ98D2PRc82AzyORzSlzPknifOm9jDXUNjGvuMfkt0hcUvo3kWbdvB3EjNu5QCIAAKO2CzdHgqARqD9PAKyoSgdiR2S/+UnPV0b4upmTktM9M75O+xjn2fH31tPxBtEu+hJuZEkZJkxQLouotNrSVBnqVT8/NW7yevfYl1TEdBUHoC1yTfaBZrREzWwO18+C/hVeZzig1Xe515HZNUDAb0nE9lmftC61jFB2ScVzscajNPd/SPf+vhkKnv6Or+dz64jFGPpwRknbdJ/nTYtdL8imHgwJoRj46NqGxJlTWmtYZNTMBkdek3T6jXn1M/cFK74YSh/7TJfM5kPWewnNWaT6sGT8v6z8gGTyusx9XMcS13Si9cNDhmTEPe7pFwJz+r23x0Vf+uv+yNwMUgB/B0gpC/najfbn+/lz/SNTTePjhh3JJsMwcAfEAbCxQCNe9RUbCHUoBQHsVZSuTsCCQH+Sg9g8MaR1gjeLXcXJdjdtXwTBc7Ztq0/8XdGXcCvQ6MLZE2lxZOErGE83gRML00LP7aYyydCtAfRbFWFeuZQi5erCHdPeMj5qcnDH2jvQ6XiQ9obYFOIaKXZENuupep4gJKzte5Jdq2adJom75NuLJy8/s/f+VqsI6zVjpNT3jI5ic/Nln2qyznjUNhyCqwaRV1nNFyMYM91umM9gxHuxyBLqevy+kxOVwm57zJOW/E5dY7vKbhYPfWcNfWoG7Io7DPtXGzK9h5pTOkcwZUA2Mrrcf7Hh31AtcHcEmBAOf1yItj65h3u5hRlfmSaUgap8LwBVk0G6boaExdVYC/u7Xoa/rpKCkm55LIovlEmzXQuz2n5VzKwbG1I9c6bSe7bR9zz12dpTreNVoaUIOuWqtVpLUCPXwXO9KL7eivoXb6ZPHTZygiKbKX7tcVnBlikYgNkNiaZO8kuf/JC20/2WtgJ7vsIfWAr0tIUXeEm825VFxQA6Eyr5Hx3ub06O7bxz51yVOGEVqWTlvCVfLKoXRP3/u9jkm14OvgImohqXdkDc6c1p5WsNF2a7DdFpCxQZU9rBKCCs4rY10dzJyMnVNw8wrW3WF2ycw+hTUst4XbmeAKzrfM7lnm9N7CexVDYQ3nvW14btXm3fsuILqw/qI6BeddpO+xQ72WA2u3zLRtvtY5UlCyGSWTVTMpdELYT6bmVPMSDpoqGODSOpjLyrlMhzXSOZLUMjN629ga50V93wf3P3ll1Af6D6bAolhr1kXSarTqzYWxyOKKXWiBILqLL90Qls/5639+r24gO8Vt1iBNsVkizQKuVqVYKqVF1Jsvnizcsf2ogTndybu1A2GdJaVhv1AvM6hmAhqrr5ePrDRf+77j/O4zdMhYa5Xg3EA8afLIC3O6B46sHIlptxUBt+53KcxuLRfWO+NaZ0whRNq50Ao2KHfE4L1oD8ntAYU9oLT7QaEW/EZHDE7MbE7N5hR8WuaIt28JtG3z3zoSkG2NqR2xlUP+1eajj/x5QjLzFFuQLi6J5O8H0/+27eRq+7hycFbLZ5RMXskUVdDbQv5F+x6gO9AYuxZizKbkbE7OFhRsXs2l1baAkZvv4a+s5I7f/+SVV89hsAbKRZ3So0m92WzUKMFmcYe+Lq6LC/pz4vl5L/3nY0z195BO4+SA30QRtiKU/CpJes02ybMH46uFQ93WS3eNZNSbgmomAeFFam0EzxsIyvk0cL7BqFHDoqCkRrqQqUKxYfH3OBMmy5zingNPvpbyV9DVA7gOvF5yLUAGHr5o3HhWawsqhvLfYOJ6Z1zH+ZU2j8zi7rB5ZVxQbo/IHbEVbLCNC8JR2BFWOcMqR0glwDwLlastqrSmESQhp3Cm2oYCt+aV4mQAABO+SURBVDrdK0YCbY5Au82nHJj89pbxH44cuJqDDz02yTreoTdP7M+Oq37ywZ074is2eVRMTsmUaJhzWM1006aYE7cOMyU4nSl4qaWVVbBZnZBTDHhWOz2r2XPrbHtfOJCnLRislnoN9sZALtWqjSYAtVTFV2rQLa7df1qMPzn5pWdLkG1K6Q0UsilC/CLZ+odLvRt2f4u5uoYJK6zpDqEodyQV9oDG4dI7wA3XWV0GW9hgTeisaa0tic6f4FE4ptANZaJGPtbFXllpfv9vHyfwA9N5dF6KaDjvPFC+e+DQGsuVlUPRZWZfhxBXQiQdHG0pdadOlmi/LF6AXkgXBa4EoRsHi+kETkp01GMdQlhmDyodQbXgVdlm9NYrK9mzP3zo4u8PQjG00GpVW7l0DXXzCx9E1lj33rFlRj04p2ESdCkXlEwOwoOQDvVrWW8nG+jk/CaHX8nOLrNeUwwHNFtTyyyBDnNo9UhKt+Hc6s37X3gvEq4iuSqLMBBYxERT2CTdkL9gQD9nIf/n1zH9YQs9NqT1S9QLzFtLVVLLEhJpkQtBsvW58e4fvXebbUZpjbfxeZk9DpMbflorTBn4WSPrNVojBktKb0VHkMbYrXBMKhwzCshJxrqFy2v43X8/HU8S4s/XInlsHpE8+dVfI+s2Hek1jxtZ77JBt3o4RfWfb/68B0gU2nfIdWPSpeBhc6oCWtRl5Gd6hKuGwZNdltFH3iReakWfquYh3UPIH/fFOje8vYq71Ml5NExMyWQVTF7B5gDU4kJqnrp5W1xa87zR7jMOBxQOt3zIpxyOKITgqu3pjgfO9Q6MPvFy+Nw8yYAeW6rDaQ7Cu1/5ny8TYymzpvYrS91/CiYoN9I1Uo7X8+EaOoL7LpIfCR+u6h/VMW45H1UKWCVKdhYeMZzHIIS1TExrS2ltaQ2ToHu1R2WfBrKCyyqgDDthsOz95W5vaGF0gJ/57nGyccdYz6ZTPey8mvUvs/o0WzJfaD5Ne6tgx0tu8RQ+HKMavhEVG5CbZ7TM9OqReZPtgvyBQw88Fdh9FV0UdDcJcZXJ469F9ev39bDXdDYfhOQZDBUUbEbJxSh72KXl5/T8vJqZQ5XsiEFjyxpstwTUrLfHOdPxk/eZZyfPBWGSUkDWKlJB9YXl+9WG+cvEWPI9r2Cas5TO45esS4jsMqmkWs24SII1svNY5Z6Rj43W8ypmWsPN6uweLe9VMh4VG1BzMcgFsin6GKOLwAtiAe+Xs/l2S8LgcKsGP/rh46N/PVMdDZMrOfLykebgzyd7No92W6/2DEXU9kibEJEPJQDwXtyob+JJCPcTBbJTzDNAkEoO+q4aPtwxONveN97lmFuzZU5vPtvLXRj8lXvPRXI5TI7Nkt/trv1g6yVT/7nbtsY6+jwqNgX3NTar4JKSyDjlpc1onDPaIXiMdFiiSiavtuU0lkgXN9/+493rnzz1/jj8sijkjuZTCzOBrza++GlfJsYNKidODSglaUmkgKA/glXWiFO9l0awUM1R4uELe6LrhI/0lpOqgbNaZsogBLV8TMHGZWxSTp0nACf+BIUPeW45W1hhTnVuTRicV9XWg7dtO3rvk+f7fjP1w0cmjP0nNZsvd9tDOkdMbo91OGPLqNDfTYR2YTNf8DlhQ5J9LUUNx2mFDZysmsNSVlunVo54ep0zWvN548DxHwydYX4xu/Gx6dWDp+T3Hjda5tY+WOwwRxRsBrMjDkaKKPk4L2IsTC9nL2ke9Mn46PK+hJ4lK+2kl0msYca/yb3/j9NpKc/KiQtQk4W06qsP8ZeNcV5cuBFpZSfFWKw36+lGM0kNPssgExNoz83lCP/b83dvO6HdfEjTf87A+vQClXNls+18ul2Id9hDcqjlwiMZ/X0mobVXV5hTSiFiGPEp2fNt/Yc7+g63bzyisYypzVN6Pqy3J9ttoRVsqN0ZXsZ6FfzNH8ZBUHKoW6mU1VNAOKa/ajbWYfZ3jqQMjrBscFrDzHY6XAbumomZMG46Z1x/RvvAWd2mcYPFrWfCKiYmsyXkXJpygsDwx0YN+qFLLcz8b+ai5uGQwpla0Z82WMXO/oLxgak7rSf+sDcyk8cHlxZTdTB+WqUibfzffM37RW6FL7uOPxNjDCAbFWjN1OqJOlgNtTJpxguAm384WX/01fm7HIcNm4+ZrPNGIa3iC21cboWQWuGItjn8MrtXxcMwWG+L6a0pLVtQcdl2S0DOejQOl9YxZxj26Bw+uc2ndaR0jryCS7XZwu1csB3ePB6qpnyzYaYSSQE6SADem1ZuCzGWmQPG4bTBGZdbPUqbS8O6dLyrZyiwdjjWw4a6ufDKofTqbUU1F/9Gn0/Bp2hOHkeqQZk+tE2NxvUK54zqoWg7H5MPpjrNRd2987f3jT3ye998Gqq+RWgvxloQP6o2KMR3sTb6IgG8ia/9MjGG7BftOFFNmevTLgCB0P5rApUN9f0maeWpRtl750t9Pxtd2X+w2zzZCTvvTBubXmFPLHeE2pzeDodbyfu0LEopgyXdsSnYM1LS2xNym1/B+eWcXylE2plIB5tSOUoyLtfBpFSOpMoZlgvzKidE3L/QXq1lpRgHqG1pmOImEWalDd7DcltQyQaNQzE152s3z6hYr2zAq2PjRkeaaoMA5r7cEtCOZKQuNLW7DdHtAT9WxftlI4H2kdCtgx6tLXybkFiz6YrjF57LHtqGrpQaMG2NlaqBJuSeqDHUTQTsP/ElXybGLUn+/JOcSxqMSIBfUK0kLCzIhBTkLiZpq3nnyfL37QeN6z/uZlwaJiTjYm32SMdIWLE1oBzxq4QA6CGWpHYgbrRGDbYwZJwhGwkpP8qUzHZwBRlXkHM5BZdEvQQ+8YxamFXzX8xzG3o5C1dQy4bpPB8IWbpvR6l8DiijtKQOgGC9UGhR3VchJAPtLEhJD9B1Bm0TBTqFTzNAU6u2JG+xutotc+u2BuX/9uH3uI/PzGDxluto8tMtEGIHkoIklVP6WjbrLxNjKuIm7S9SXr0U44UwUx4sWFU1IlabIqRRMk0ykyD/vit2u/mQqe/Mmi0hmWVeZve1O7xtdlc7iAIBHR/TM2m9JWGyBqEpA70RyjlgEwo2I2PzMsQ4r+DS1McioOFdWn5ay8+oaUfpJpcyFhzOTr8GOGcsZYrpj2hYXOi4ofMaUXJhCusPyYRQhx3q3B32YIc90IFJMGzVKDjLqwRTBDhLiR5Af0JUzkfbrK7V2/z6/o/v3XFiz3niSVEzAigSwyGOSv1Kar8QMaOA+P/EQv2/fMuXifHij5Y6MUt79VKkFzqtEkiuLrYgRJGvo1M3kySPvuhaa/mohzlvEqZ0TpdcmG9jZ9shhIN8W8+m9LYYiMs2MJj1TFBSZIf9G5W3UXApWueEAbXn5vXcjI6b1XBfYB3TWyGgoqBoJErIv6AzK+3bNNnGWqQBDkOwWQi2O3Avtjs8HYAAuGFuK7hVC+h5TMcXc3XJZh6m7Tpmroc/32t+9/k9vhRFspaqImBZgJtRVzmUIWCFtiCiRPXxFj/Xr+q/Xy7GS322pSdSXG94xCqHKHWlkmuIrTLtJIyFieO5y9oHdq4dutQ9NKWzz6sFj9oe1AjUrpGJ6LmokfGYbG4j44VyJBOhGlUoYRXQMooqKaBVsqGhUinShOdmcy4V9t6AgkcmT2nTCDNd0FK+LVXP6IPKKU9HZg92OJAxyBxwN1XYXSrBTd2LqYcLJb9oFiDTISV27EAX61vNXdVveHfHSxMXo5D9rRJSLOegxr0EFcX2XGshxvn/rjGWIKD4RaX9mp4oSyt7YSnTurlZr5WzRKwXq/BDyxByYELse+JYV//73cw5A3NNz/sNzrhGiHVYA7DEdURAX2Y8evCYJT9HunlipBGkbHyJX7TgTEnX0E0HmEPjGmpiYJtRexOw42FOJV0a1q9B61uyKgtSxncAhrZ0c4azB4Lqk9wWJMMFLb4F3nUU1oPdpdc6foftuO2ps2dD6I6FihBRxx0Oh3TanJbgwKibSlSy82vpg3yJdbzU20JYJczggs8DxTF/uqGOnbwBMQdQiiAXlG6h67v3sngn994q66hh8LLW4tajERhrs/raWa92GK50WmrYKe2Bi+mPXwl88hJQOYDtdKFF9QW4Nko+KMOxCk0xGmaJyeLTwnTHi38XAncLMZODTRpQUKUHaWPXUg1xgy1kxBU0MCDO47DgvQrBLbO7dPzVns1H1289fmRqAeIJ6kYjiiSrVQIsH6cyTVgh2Vmnph//3XqZn8RY4h7BQEHEVaT59qLpEl3TVFiZeq9goADR0FS9moXwK/nDvsw928dWM1e1fXMaS0TDxWUYBboUTh/dSCXWEACtdHzkp36WLgWVTYEojhCmyjc5GZcFyf2me5lg6NiDbQ4pzH4FnGp9dOeX9l4IDSCJQzLlg6cRUiqcF4Bg2mLg1lrjJku80xIzWSJGWwg2p5xXKVDlHueMTrj0b1tO/W1fAUwc0IRh3Fash1oAlOYlnX8sDUl3BdAA+ol9VYfwdT/nS6zjJc0QdOEkFb+CiMRB0iH5FI8ZUOBmCxqWwAkX60CLNDMt4iuAcTr03MQPto519o/pzS6jkFDx8XYm1A7CKkh/tJkcpU/CmAlSMDqVwPdiswVIKiXj8nI2i1YzUuWbulScpPwYgLKO4Mc8Gz1IKJlIFyWOemmkJQILim+pNAJCj4no0KhJoJS3xiFKywSpIsWsRrimto9386OP/flajvZ7YxTfX8Pdn2vC5qBEbanofkdF8RrUnISec9cF5yt6+uVivPBLSCtami8ujRg/8wsvwQkhG4SY16kTDDzdY+SRP493b9rVOXB2lSOqGEy29RdNw0TFpDVsTG2LqqwRFSivi4UNE1IzIRWusIqJqpi4ypZQ22JaW0Bn893kpWV8Glxe6dIyXi3j1dk8n1yMR4cLr2sZLxW/nJHbp+T2KZl9psM+3yF4ZXxQzka1QlrPp7S2kJH1mWzXtP2nbxsaczw/m6wDHgQTC6h+SWKzSxNiOpZd/JCkBOYriumNP+YrifGNP/Tz/y7FePEQImJDBMF3If/acz5tefJY9+YPOs0T60bKnTxZtj6j5dIaLqLBDklZgfS5lo9KL97wqOXCOi6kZ4Nf06Xj/BrBrbLPKx3zCqdL5vTIHH65PawQYnIm0tHv1dt8t48E1wBh+SH3W8/ZAAEbDnYozU/zSz7/4/n6Xv3nxnipdAbyHpZrlF4Ez59Yi7x/sdH3xFnd/fuN/ZdX2+NdQlLJeWX8vIyf7+DmOrg56blccElPbniUc24FE4Ax89dzqawRjSWhMSc1loTKGlPaokpbRGmLqK2hTiG2djjWbbumWf/RqsF95qcvvHMJXI1iEzG+IcDXkYm+vrB+6if/c2O8UEpJbU44drWQfzUyDQxhYoTsOtca/MVF04Y9+g1HV9uvGh3XdEPTWufU0qUbmr7hlaX/pXXM6gWPXvB/TZeRC/dYMyvN+V5Lpsea7LLFuphwNxPoYT2mwcnVzBXD+g97Nr0z9PylfZNkvoqqoQwDlBsX8f/oGC8U0JJ4FASmqAtBsUmq2VolRwVqIk1ydJo8+drcj7cfXGvbaxg8rB08oRk4vnRpB0/8/1y6gZP6r+0y9p3vWX9t5f2zveuv9WwY79p4qWvTue7Np3o2H1szcGTd4L77th169h3flQSg9nHaAKjdyALE8vofH+NFdTDATCXnvRL1JYKPBDwWqQSYp0iOXKu/+GHokb/Obn/Ju/0l74N/8Tz4F4/0fMdffdKTzzx6drw0/9BLs1/T9fCLvkf/mHrsD7nHXkg/+qf4I3+OPPxi8JEXfY++6H769eA/Pq6MzkB+UXKvKoDnimnbDREV6Z9P7aRf/1/+iXv1J4mlNI+q0Pmj1DZpwLQGRgOiZHRVoLzQLF0NGQqhSi8+X3oxs/jK0pMs+gtf1yUpYkv+cHF6ssToek0Q4sqibZcn8AFNVVFHNqByUKKKd5+K4f/4GIPCTydoUupFwboi1VGGvScuGmmx3KwXG/WK2MJXiGJDFOutVr3Vkp5TWQi8+Jmr1RDBKv+aLmoz0yqAD9LKw0a3mcNzhLYEl2ySLILwT/VkG7U6xBY/O0f6fyHG1yEdbuhpQzxH0vJcWuV1aHxI9eQNj0t+3Tc8kXRvv55Hajaap66Z0SqJUhmhZBU2nZWlngDeHi4JIvF1zQo/tTPcxF/+mXv1wiew+EHQLs9SNYWUuwn4PTy8pKMaErbo6N7ktSTne0Pgv6q/gg8C+fQWYONh+hhrQfutsLBel5q7eCNVCpH4WvrPNxHWT33JPz3GNyzfpRgvoUdgkluF4yPYoJJVORR8rr+o8Hrthkf476BDiNvk67jQqGq2qO2XpDxRRJuuRa0Glxp90tuBfAcVM0SX97/+zz83xovOYXjv/+EFSwt8RohZo0qan71qYFx/9pK+skGFPr76R1AYpMNE2lcgLUqP3+tv04U7VdquJSXG/8di/MkuvXBufXr+uPTiQqsEbd7PPVv/o91X0vVZyte/2id1KXA1SliROrI3RHdhEdM3hVuYpl//9SH+UvjqL/7rL0Vx8VuXXpCe4OXrXpIAYy2qxft/f6QH9w3J2Vf4V4zvr6d14fdcpHtdtydJr9E3sThwWHyz/1X//afu1TSEUgxhTiLCVLxOp2pQMvzkg1oSWMZLjc+5mnVMrW68GpCwblF956/lUZoUSV5n0AihRBZJiZGygehJJC1mKdP+bxLk/wPBbosekwf8pAAAAABJRU5ErkJggg==;" vertex="1" parent="1">
          <mxGeometry x="288.6" y="190" width="32.81" height="32" as="geometry" />
        </mxCell>
        <mxCell id="ep5PbQnrRsc5Sk-XkBM--6" value="istiod" style="rounded=1;whiteSpace=wrap;html=1;verticalAlign=top;" vertex="1" parent="1">
          <mxGeometry x="270" y="270" width="70" height="70" as="geometry" />
        </mxCell>
        <mxCell id="ep5PbQnrRsc5Sk-XkBM--7" value="" style="endArrow=classic;html=1;rounded=0;exitX=0.5;exitY=1;exitDx=0;exitDy=0;" edge="1" parent="1" source="ep5PbQnrRsc5Sk-XkBM--5" target="ep5PbQnrRsc5Sk-XkBM--6">
          <mxGeometry width="50" height="50" relative="1" as="geometry">
            <mxPoint x="390" y="410" as="sourcePoint" />
            <mxPoint x="440" y="360" as="targetPoint" />
          </mxGeometry>
        </mxCell>
        <mxCell id="ep5PbQnrRsc5Sk-XkBM--8" value="" style="shape=image;verticalLabelPosition=bottom;labelBackgroundColor=default;verticalAlign=top;aspect=fixed;imageAspect=0;image=data:image/png,iVBORw0KGgoAAAANSUhEUgAAAEMAAABgCAIAAADJkFi8AAAE10lEQVR4Ae2a/VMTRxjH/RcXbTvoONPpTEc7GyhCnb4xYJMZGae0xSI/ZBxaLVbZQCJKCIVqiBppikZAw4uCJkjENPIS80INJHedkI7e3R7hbl/O6GwmP9xu7nn2+3m+e3uXu9snvy+ffe8LiCxIqs9K4YnwhF8FxOziV1vSzMIT0srxixOe8KstaWbhCWnl+MXx9WQsFJUkfuJVmbmTDN9cVA3IrcGdpOHkCDfxqsTcSQBEoam4akw+DStIvjtzg494VVYrSABED6OrqmE5NCwiOX0+xEG8KqVFJACif1azqpFZN6wj+W1gmrV4VT7rSA42ufNbBdXgTBvWkQCIBv0PmYpXJbOUxGb3qQZn2rCUBEB06+4SU/1vkllN0tzhfzM40y2rSQBEkYUkU4T/k70Fkvbu8XeGpFCUtgtFWZbHQlEAEf6NJ9LMYbh4cuvu0lpqswLJL/2T7wZJw8mRyiQfft6X29xiC8Pek5nFJICoMgmAyDM6V+0kbc6gEZIjLd6qJkmsZmtspUN8PfVvheOkvAb4Q1GGMIxnlxOFyyqNkHz5/bUqJcnk8h819BsnARBNziVYwbD0pP+P2denjo2Xe88uAFGbM1h1JIWi9PFXA2ZJAESxeIoJDDNP/OrTuUFPAETO3nB1kdjsvteGAIiMk9TYXKl0aSpSfth4Mj2fUGKUSHbE7XbdpdkZ+SKUGLLM6B0JR9dNjThTJJ98c7UqSOKJtAbDrCcAopEg7Y1wBrOr6/c79CSNbbQ3wmlJMrn8B/V9OMmeV5B4yJ37z2jmGC1J71AE12TkChKPcnRR3QinItkuFA8fv4xrIiMBEC3E1ohtoSIZDT7WxSAmOXNh4i2QSJKsORsqqQiOk3L4i/UcGQy5J+HIilK6ZpuY5MLV+1aTtJwe06hXNolJDh+/XCiSPC8m9CQW31DqxreJSQBE3sAjAlsISTrOh3D1yh4aknrHsEUkqfSrA3UupW58m4YEQDR+b9ksDIknPVemcemaHkqS1p8D3EnyW4WDTW6NbrxJSQIgml18YQrGtCdDgQVcN95DT/LTOXOPi82RSJJ0tMWL68Z76EkARCvJjHFbzJGEpuK4aN0eJiS/eqZ4kXz7o19Xt7Jzf53LZvdlcvnyPch6x/ChJo9yB+Pbtcfcr/LbBmFMeKJ7Njywo/vU2dsXvQ+C4aexZ6nCzpMTzfDZza2llVR4ZmU0+PiSN9LZM3GiM1DnGK5t3GPxGPhzXpNqt6YJkvbucYO6dxtMtz+TzcfiG+FICfLi4IPOnr9PdAZsdl/tsRLkZ61DulF4pwmSpV3qjSdl1ZPO5qPxDYPLsQkSVvo45TFB8mR5vXcoYuV3cOxRcs3o3xUTJLIsP1lex29tGV+LDO5ps/vOeaZmFpKSmddBzZGUJwYPnv11ruYO/5Vr8wnSl6dISBjyHPrC0949fmMiRv8AlZyEhudoq7e77970fILs76HumkFLYpynxub6+ofr7pG5p89f6kqh7GRDUoGnttF96uzt639Fy9cvlHIrhLMkUfJ82jzoROHJ2ee6Fy8VBBH/xJ6EWAploCChLCCHcOEJh6JSphSeUBaQQ7jwhENRKVMKTygLyCFceMKhqJQphSeUBeQQLjzhUFTKlMITygJyCBeecCgqZcr/AEUEUdlGHdNoAAAAAElFTkSuQmCC;" vertex="1" parent="1">
          <mxGeometry x="288.6" y="294" width="32.1" height="46" as="geometry" />
        </mxCell>
        <mxCell id="ep5PbQnrRsc5Sk-XkBM--9" value="&amp;nbsp;pod" style="rounded=1;whiteSpace=wrap;html=1;align=left;verticalAlign=top;" vertex="1" parent="1">
          <mxGeometry x="540" y="210" width="160" height="120" as="geometry" />
        </mxCell>
        <mxCell id="ep5PbQnrRsc5Sk-XkBM--11" value="envoyfilter" style="rounded=0;whiteSpace=wrap;html=1;" vertex="1" parent="1">
          <mxGeometry x="570" y="240" width="100" height="30" as="geometry" />
        </mxCell>
        <mxCell id="ep5PbQnrRsc5Sk-XkBM--85" value="&lt;b&gt;&lt;font style=&quot;font-size: 13px;&quot;&gt;&amp;nbsp; Conductor Engine&lt;/font&gt;&lt;/b&gt;" style="rounded=1;whiteSpace=wrap;html=1;align=left;verticalAlign=top;" vertex="1" parent="1">
          <mxGeometry x="140" y="440" width="250" height="105" as="geometry" />
        </mxCell>
        <mxCell id="ep5PbQnrRsc5Sk-XkBM--86" value="&lt;font&gt;Critical Path&lt;/font&gt;&lt;div&gt;&lt;font&gt;Analyzer&lt;/font&gt;&lt;/div&gt;" style="rounded=0;whiteSpace=wrap;html=1;fillColor=light-dark(#ffe699, #ededed);dashed=1;strokeColor=light-dark(#f09044, #ededed);" vertex="1" parent="1">
          <mxGeometry x="298.69" y="505" width="70" height="30" as="geometry" />
        </mxCell>
        <mxCell id="ep5PbQnrRsc5Sk-XkBM--87" value="&lt;font&gt;&lt;span style=&quot;text-align: left;&quot;&gt;&amp;nbsp;Obfuscation Agent&lt;/span&gt;&lt;span style=&quot;text-align: left;&quot;&gt;&lt;font style=&quot;&quot;&gt;&amp;nbsp;Generator&lt;/font&gt;&lt;/span&gt;&lt;/font&gt;" style="rounded=0;whiteSpace=wrap;html=1;fillColor=light-dark(#f0cbad, #ededed);strokeColor=light-dark(#ed7e35, #ededed);dashed=1;" vertex="1" parent="1">
          <mxGeometry x="168.69" y="505" width="120" height="30" as="geometry" />
        </mxCell>
        <mxCell id="ep5PbQnrRsc5Sk-XkBM--88" value="&lt;font&gt;&lt;span style=&quot;text-align: left;&quot;&gt;Obfuscation&amp;nbsp;&lt;/span&gt;&lt;span style=&quot;text-align: left;&quot;&gt;S&lt;/span&gt;trategy&lt;/font&gt;&lt;div&gt;&lt;font&gt;Genetator&lt;/font&gt;&lt;/div&gt;" style="rounded=0;whiteSpace=wrap;html=1;fillColor=#d5e8d4;strokeColor=#82b366;dashed=1;" vertex="1" parent="1">
          <mxGeometry x="168.69" y="465" width="201.31" height="30" as="geometry" />
        </mxCell>
        <mxCell id="ep5PbQnrRsc5Sk-XkBM--89" value="" style="endArrow=classic;html=1;rounded=0;strokeColor=light-dark(#ffc000, #ededed);endSize=3;" edge="1" parent="1">
          <mxGeometry width="50" height="50" relative="1" as="geometry">
            <mxPoint x="334" y="505" as="sourcePoint" />
            <mxPoint x="334" y="495" as="targetPoint" />
            <Array as="points" />
          </mxGeometry>
        </mxCell>
        <mxCell id="ep5PbQnrRsc5Sk-XkBM--90" value="" style="curved=1;endArrow=classic;html=1;rounded=0;exitX=0.33;exitY=0.962;exitDx=0;exitDy=0;strokeColor=light-dark(#82b366, #000000);exitPerimeter=0;endSize=3;" edge="1" parent="1" source="ep5PbQnrRsc5Sk-XkBM--88">
          <mxGeometry width="50" height="50" relative="1" as="geometry">
            <mxPoint x="18.689999999999998" y="565" as="sourcePoint" />
            <mxPoint x="235" y="505" as="targetPoint" />
            <Array as="points" />
          </mxGeometry>
        </mxCell>
        <mxCell id="ep5PbQnrRsc5Sk-XkBM--91" value="" style="endArrow=classic;startArrow=classic;html=1;rounded=0;entryX=0;entryY=0.5;entryDx=0;entryDy=0;exitX=1;exitY=0.5;exitDx=0;exitDy=0;strokeColor=light-dark(#9673a6, #EDEDED);" edge="1" parent="1" source="ep5PbQnrRsc5Sk-XkBM--85" target="ep5PbQnrRsc5Sk-XkBM--154">
          <mxGeometry width="50" height="50" relative="1" as="geometry">
            <mxPoint x="350" y="615" as="sourcePoint" />
            <mxPoint x="400" y="565" as="targetPoint" />
          </mxGeometry>
        </mxCell>
        <mxCell id="ep5PbQnrRsc5Sk-XkBM--92" value="&lt;b&gt;&lt;font style=&quot;font-size: 13px;&quot;&gt;&amp;nbsp; &amp;nbsp;Data Plane&lt;/font&gt;&lt;/b&gt;" style="rounded=1;whiteSpace=wrap;html=1;align=left;verticalAlign=top;movable=0;resizable=0;rotatable=0;deletable=0;editable=0;locked=1;connectable=0;" vertex="1" parent="1">
          <mxGeometry x="140" y="560" width="320" height="175" as="geometry" />
        </mxCell>
        <mxCell id="ep5PbQnrRsc5Sk-XkBM--93" value="" style="endArrow=classic;html=1;rounded=0;exitX=0.5;exitY=1;exitDx=0;exitDy=0;entryX=0.277;entryY=0.01;entryDx=0;entryDy=0;strokeColor=light-dark(#ed7e35, #ededed);entryPerimeter=0;endSize=3;" edge="1" parent="1" source="ep5PbQnrRsc5Sk-XkBM--87" target="ep5PbQnrRsc5Sk-XkBM--92">
          <mxGeometry width="50" height="50" relative="1" as="geometry">
            <mxPoint x="60" y="585" as="sourcePoint" />
            <mxPoint x="110" y="535" as="targetPoint" />
          </mxGeometry>
        </mxCell>
        <mxCell id="ep5PbQnrRsc5Sk-XkBM--118" value="" style="endArrow=classic;html=1;rounded=0;exitX=1;exitY=0.5;exitDx=0;exitDy=0;entryX=0;entryY=0.5;entryDx=0;entryDy=0;" edge="1" parent="1" source="ep5PbQnrRsc5Sk-XkBM--95" target="ep5PbQnrRsc5Sk-XkBM--101">
          <mxGeometry width="50" height="50" relative="1" as="geometry">
            <mxPoint x="-90" y="665" as="sourcePoint" />
            <mxPoint x="-40" y="615" as="targetPoint" />
          </mxGeometry>
        </mxCell>
        <mxCell id="ep5PbQnrRsc5Sk-XkBM--119" value="" style="endArrow=classic;html=1;rounded=0;exitX=1;exitY=0.5;exitDx=0;exitDy=0;entryX=0;entryY=0.5;entryDx=0;entryDy=0;" edge="1" parent="1" source="ep5PbQnrRsc5Sk-XkBM--95" target="ep5PbQnrRsc5Sk-XkBM--107">
          <mxGeometry width="50" height="50" relative="1" as="geometry">
            <mxPoint x="338.69" y="619" as="sourcePoint" />
            <mxPoint x="388.69" y="569" as="targetPoint" />
          </mxGeometry>
        </mxCell>
        <mxCell id="ep5PbQnrRsc5Sk-XkBM--120" value="" style="endArrow=classic;html=1;rounded=0;exitX=1;exitY=0.5;exitDx=0;exitDy=0;entryX=0;entryY=0.5;entryDx=0;entryDy=0;" edge="1" parent="1" source="ep5PbQnrRsc5Sk-XkBM--101" target="ep5PbQnrRsc5Sk-XkBM--113">
          <mxGeometry width="50" height="50" relative="1" as="geometry">
            <mxPoint x="333.69" y="619" as="sourcePoint" />
            <mxPoint x="383.69" y="569" as="targetPoint" />
          </mxGeometry>
        </mxCell>
        <mxCell id="ep5PbQnrRsc5Sk-XkBM--142" value="" style="endArrow=classic;html=1;rounded=0;exitX=0.5;exitY=1;exitDx=0;exitDy=0;entryX=0;entryY=0.5;entryDx=0;entryDy=0;dashed=1;" edge="1" parent="1" source="ep5PbQnrRsc5Sk-XkBM--95" target="ep5PbQnrRsc5Sk-XkBM--122">
          <mxGeometry width="50" height="50" relative="1" as="geometry">
            <mxPoint x="80" y="815" as="sourcePoint" />
            <mxPoint x="130" y="765" as="targetPoint" />
          </mxGeometry>
        </mxCell>
        <mxCell id="ep5PbQnrRsc5Sk-XkBM--143" value="" style="endArrow=classic;html=1;rounded=0;exitX=1;exitY=0.5;exitDx=0;exitDy=0;entryX=0;entryY=0.5;entryDx=0;entryDy=0;dashed=1;" edge="1" parent="1" source="ep5PbQnrRsc5Sk-XkBM--122" target="ep5PbQnrRsc5Sk-XkBM--129">
          <mxGeometry width="50" height="50" relative="1" as="geometry">
            <mxPoint x="80" y="795" as="sourcePoint" />
            <mxPoint x="130" y="745" as="targetPoint" />
          </mxGeometry>
        </mxCell>
        <mxCell id="ep5PbQnrRsc5Sk-XkBM--144" value="" style="endArrow=classic;html=1;rounded=0;exitX=1;exitY=0.5;exitDx=0;exitDy=0;entryX=0;entryY=0.5;entryDx=0;entryDy=0;dashed=1;" edge="1" parent="1" source="ep5PbQnrRsc5Sk-XkBM--129" target="ep5PbQnrRsc5Sk-XkBM--136">
          <mxGeometry width="50" height="50" relative="1" as="geometry">
            <mxPoint x="70" y="805" as="sourcePoint" />
            <mxPoint x="120" y="755" as="targetPoint" />
          </mxGeometry>
        </mxCell>
        <mxCell id="ep5PbQnrRsc5Sk-XkBM--145" value="" style="endArrow=classic;html=1;rounded=0;exitX=1;exitY=0.5;exitDx=0;exitDy=0;entryX=0.5;entryY=1;entryDx=0;entryDy=0;dashed=1;" edge="1" parent="1" source="ep5PbQnrRsc5Sk-XkBM--129" target="ep5PbQnrRsc5Sk-XkBM--113">
          <mxGeometry width="50" height="50" relative="1" as="geometry">
            <mxPoint x="110" y="805" as="sourcePoint" />
            <mxPoint x="160" y="755" as="targetPoint" />
          </mxGeometry>
        </mxCell>
        <mxCell id="ep5PbQnrRsc5Sk-XkBM--146" value="&lt;span style=&quot;color: rgba(0, 0, 0, 0.9); font-family: -apple-system, BlinkMacSystemFont, &amp;quot;Segoe UI&amp;quot;, system-ui, -apple-system, &amp;quot;Segoe UI&amp;quot;, Roboto, Ubuntu, Cantarell, &amp;quot;Noto Sans&amp;quot;, sans-serif, Arial, &amp;quot;PingFang SC&amp;quot;, &amp;quot;Source Han Sans SC&amp;quot;, &amp;quot;Microsoft YaHei UI&amp;quot;, &amp;quot;Microsoft YaHei&amp;quot;, &amp;quot;Noto Sans CJK SC&amp;quot;, sans-serif; text-align: start; white-space-collapse: preserve; background-color: rgb(255, 255, 255);&quot;&gt;&lt;font style=&quot;font-size: 10px;&quot;&gt;&lt;b&gt;Envoy Filter&lt;/b&gt;&lt;/font&gt;&lt;/span&gt;" style="text;html=1;align=center;verticalAlign=middle;whiteSpace=wrap;rounded=0;container=0;" vertex="1" parent="1">
          <mxGeometry x="489" y="647.19" width="61" height="24" as="geometry" />
        </mxCell>
        <mxCell id="ep5PbQnrRsc5Sk-XkBM--147" value="" style="endArrow=classic;html=1;rounded=0;dashed=1;jumpSize=10;strokeWidth=0.5;sourcePerimeterSpacing=10;" edge="1" parent="1">
          <mxGeometry width="50" height="50" relative="1" as="geometry">
            <mxPoint x="468.5" y="719" as="sourcePoint" />
            <mxPoint x="484.5" y="719" as="targetPoint" />
          </mxGeometry>
        </mxCell>
        <mxCell id="ep5PbQnrRsc5Sk-XkBM--148" value="&lt;span style=&quot;color: rgba(0, 0, 0, 0.9); font-family: -apple-system, BlinkMacSystemFont, &amp;quot;Segoe UI&amp;quot;, system-ui, -apple-system, &amp;quot;Segoe UI&amp;quot;, Roboto, Ubuntu, Cantarell, &amp;quot;Noto Sans&amp;quot;, sans-serif, Arial, &amp;quot;PingFang SC&amp;quot;, &amp;quot;Source Han Sans SC&amp;quot;, &amp;quot;Microsoft YaHei UI&amp;quot;, &amp;quot;Microsoft YaHei&amp;quot;, &amp;quot;Noto Sans CJK SC&amp;quot;, sans-serif; text-align: start; white-space-collapse: preserve; background-color: rgb(255, 255, 255);&quot;&gt;&lt;font style=&quot;font-size: 10px;&quot;&gt;&lt;b style=&quot;&quot;&gt;virtual traffic &lt;/b&gt;&lt;/font&gt;&lt;/span&gt;" style="text;html=1;align=center;verticalAlign=middle;whiteSpace=wrap;rounded=0;container=0;" vertex="1" parent="1">
          <mxGeometry x="488" y="705" width="69" height="24" as="geometry" />
        </mxCell>
        <mxCell id="ep5PbQnrRsc5Sk-XkBM--149" value="" style="endArrow=classic;html=1;rounded=0;jumpSize=10;strokeWidth=0.5;" edge="1" parent="1">
          <mxGeometry width="50" height="50" relative="1" as="geometry">
            <mxPoint x="468.5" y="699" as="sourcePoint" />
            <mxPoint x="484.5" y="699" as="targetPoint" />
          </mxGeometry>
        </mxCell>
        <mxCell id="ep5PbQnrRsc5Sk-XkBM--150" value="&lt;span style=&quot;color: rgba(0, 0, 0, 0.9); font-family: -apple-system, BlinkMacSystemFont, &amp;quot;Segoe UI&amp;quot;, system-ui, -apple-system, &amp;quot;Segoe UI&amp;quot;, Roboto, Ubuntu, Cantarell, &amp;quot;Noto Sans&amp;quot;, sans-serif, Arial, &amp;quot;PingFang SC&amp;quot;, &amp;quot;Source Han Sans SC&amp;quot;, &amp;quot;Microsoft YaHei UI&amp;quot;, &amp;quot;Microsoft YaHei&amp;quot;, &amp;quot;Noto Sans CJK SC&amp;quot;, sans-serif; text-align: start; white-space-collapse: preserve; background-color: rgb(255, 255, 255);&quot;&gt;&lt;font style=&quot;font-size: 10px;&quot;&gt;&lt;b&gt;real traffic &lt;/b&gt;&lt;/font&gt;&lt;/span&gt;" style="text;html=1;align=center;verticalAlign=middle;whiteSpace=wrap;rounded=0;container=0;" vertex="1" parent="1">
          <mxGeometry x="485" y="685" width="69" height="24" as="geometry" />
        </mxCell>
        <mxCell id="ep5PbQnrRsc5Sk-XkBM--151" value="" style="rounded=1;whiteSpace=wrap;html=1;fillColor=light-dark(#b4c7e7, #ededed);container=0;" vertex="1" parent="1">
          <mxGeometry x="464.5" y="653" width="17" height="12" as="geometry" />
        </mxCell>
        <mxCell id="ep5PbQnrRsc5Sk-XkBM--152" value="" style="rounded=1;whiteSpace=wrap;html=1;fillColor=light-dark(#d0cfcf, #ededed);container=0;" vertex="1" parent="1">
          <mxGeometry x="464.5" y="673" width="17" height="12" as="geometry" />
        </mxCell>
        <mxCell id="ep5PbQnrRsc5Sk-XkBM--153" value="&lt;span style=&quot;color: rgba(0, 0, 0, 0.9); font-family: -apple-system, BlinkMacSystemFont, &amp;quot;Segoe UI&amp;quot;, system-ui, -apple-system, &amp;quot;Segoe UI&amp;quot;, Roboto, Ubuntu, Cantarell, &amp;quot;Noto Sans&amp;quot;, sans-serif, Arial, &amp;quot;PingFang SC&amp;quot;, &amp;quot;Source Han Sans SC&amp;quot;, &amp;quot;Microsoft YaHei UI&amp;quot;, &amp;quot;Microsoft YaHei&amp;quot;, &amp;quot;Noto Sans CJK SC&amp;quot;, sans-serif; text-align: start; white-space-collapse: preserve; background-color: rgb(255, 255, 255);&quot;&gt;&lt;font style=&quot;font-size: 10px;&quot;&gt;&lt;b&gt;Pod&lt;/b&gt;&lt;/font&gt;&lt;/span&gt;" style="text;html=1;align=center;verticalAlign=middle;whiteSpace=wrap;rounded=0;container=0;" vertex="1" parent="1">
          <mxGeometry x="489" y="667.19" width="54" height="24" as="geometry" />
        </mxCell>
        <mxCell id="ep5PbQnrRsc5Sk-XkBM--154" value="&lt;b&gt;&lt;font style=&quot;font-size: 13px;&quot;&gt;&amp;nbsp;Control Plane&lt;/font&gt;&lt;/b&gt;" style="rounded=1;whiteSpace=wrap;html=1;align=left;verticalAlign=top;" vertex="1" parent="1">
          <mxGeometry x="430" y="440" width="127" height="105" as="geometry" />
        </mxCell>
        <mxCell id="ep5PbQnrRsc5Sk-XkBM--155" style="edgeStyle=orthogonalEdgeStyle;rounded=0;orthogonalLoop=1;jettySize=auto;html=1;exitX=0;exitY=0.5;exitDx=0;exitDy=0;entryX=1;entryY=0.5;entryDx=0;entryDy=0;fillColor=#fff2cc;strokeColor=light-dark(#ffc000, #6d5100);endSize=3;" edge="1" parent="1" source="ep5PbQnrRsc5Sk-XkBM--156" target="ep5PbQnrRsc5Sk-XkBM--86">
          <mxGeometry relative="1" as="geometry" />
        </mxCell>
        <mxCell id="ep5PbQnrRsc5Sk-XkBM--156" value="kiali" style="rounded=0;whiteSpace=wrap;html=1;dashed=1;fillColor=#e1d5e7;strokeColor=#9673a6;" vertex="1" parent="1">
          <mxGeometry x="445.5" y="507.5" width="96" height="25" as="geometry" />
        </mxCell>
        <mxCell id="ep5PbQnrRsc5Sk-XkBM--157" value="apiserver" style="rounded=0;whiteSpace=wrap;html=1;dashed=1;fillColor=#e1d5e7;strokeColor=#9673a6;" vertex="1" parent="1">
          <mxGeometry x="445.5" y="470" width="96" height="25" as="geometry" />
        </mxCell>
        <mxCell id="ep5PbQnrRsc5Sk-XkBM--95" value="" style="rounded=0;whiteSpace=wrap;html=1;align=center;verticalAlign=top;container=0;" vertex="1" parent="1">
          <mxGeometry x="175.69000000000005" y="595" width="50" height="40" as="geometry" />
        </mxCell>
        <mxCell id="ep5PbQnrRsc5Sk-XkBM--96" value="&lt;font style=&quot;font-size: 8px;&quot;&gt;&lt;b&gt;Service&lt;/b&gt;&lt;/font&gt;" style="text;html=1;align=center;verticalAlign=middle;whiteSpace=wrap;rounded=0;container=0;" vertex="1" parent="1">
          <mxGeometry x="170" y="585" width="60" height="30" as="geometry" />
        </mxCell>
        <mxCell id="ep5PbQnrRsc5Sk-XkBM--97" value="" style="rounded=1;whiteSpace=wrap;html=1;fillColor=light-dark(#b4c7e7, #ededed);container=0;" vertex="1" parent="1">
          <mxGeometry x="177.69000000000005" y="605.5" width="46" height="12" as="geometry" />
        </mxCell>
        <mxCell id="ep5PbQnrRsc5Sk-XkBM--98" value="" style="rounded=1;whiteSpace=wrap;html=1;fillColor=#D0CFCF;container=0;" vertex="1" parent="1">
          <mxGeometry x="177.69000000000005" y="618.996" width="20" height="12" as="geometry" />
        </mxCell>
        <mxCell id="ep5PbQnrRsc5Sk-XkBM--99" value="" style="rounded=1;whiteSpace=wrap;html=1;fillColor=#D0CFCF;container=0;" vertex="1" parent="1">
          <mxGeometry x="203.69000000000005" y="618.996" width="20" height="12" as="geometry" />
        </mxCell>
        <mxCell id="ep5PbQnrRsc5Sk-XkBM--101" value="" style="rounded=0;whiteSpace=wrap;html=1;align=center;verticalAlign=top;container=0;" vertex="1" parent="1">
          <mxGeometry x="265.69000000000005" y="565" width="50" height="40" as="geometry" />
        </mxCell>
        <mxCell id="ep5PbQnrRsc5Sk-XkBM--102" value="&lt;font style=&quot;font-size: 8px;&quot;&gt;&lt;b&gt;Service&lt;/b&gt;&lt;/font&gt;" style="text;html=1;align=center;verticalAlign=middle;whiteSpace=wrap;rounded=0;container=0;" vertex="1" parent="1">
          <mxGeometry x="260" y="555" width="60" height="30" as="geometry" />
        </mxCell>
        <mxCell id="ep5PbQnrRsc5Sk-XkBM--103" value="" style="rounded=1;whiteSpace=wrap;html=1;fillColor=light-dark(#b4c7e7, #ededed);container=0;" vertex="1" parent="1">
          <mxGeometry x="267.69000000000005" y="575.5" width="46" height="12" as="geometry" />
        </mxCell>
        <mxCell id="ep5PbQnrRsc5Sk-XkBM--104" value="" style="rounded=1;whiteSpace=wrap;html=1;fillColor=#D0CFCF;container=0;" vertex="1" parent="1">
          <mxGeometry x="267.69000000000005" y="588.996" width="20" height="12" as="geometry" />
        </mxCell>
        <mxCell id="ep5PbQnrRsc5Sk-XkBM--105" value="" style="rounded=1;whiteSpace=wrap;html=1;fillColor=#D0CFCF;container=0;" vertex="1" parent="1">
          <mxGeometry x="293.69000000000005" y="588.996" width="20" height="12" as="geometry" />
        </mxCell>
        <mxCell id="ep5PbQnrRsc5Sk-XkBM--107" value="" style="rounded=0;whiteSpace=wrap;html=1;align=center;verticalAlign=top;container=0;" vertex="1" parent="1">
          <mxGeometry x="305.69000000000005" y="615" width="50" height="40" as="geometry" />
        </mxCell>
        <mxCell id="ep5PbQnrRsc5Sk-XkBM--108" value="&lt;font style=&quot;font-size: 8px;&quot;&gt;&lt;b&gt;Service&lt;/b&gt;&lt;/font&gt;" style="text;html=1;align=center;verticalAlign=middle;whiteSpace=wrap;rounded=0;container=0;" vertex="1" parent="1">
          <mxGeometry x="300" y="605" width="60" height="30" as="geometry" />
        </mxCell>
        <mxCell id="ep5PbQnrRsc5Sk-XkBM--109" value="" style="rounded=1;whiteSpace=wrap;html=1;fillColor=light-dark(#b4c7e7, #ededed);container=0;" vertex="1" parent="1">
          <mxGeometry x="307.69000000000005" y="625.5" width="46" height="12" as="geometry" />
        </mxCell>
        <mxCell id="ep5PbQnrRsc5Sk-XkBM--110" value="" style="rounded=1;whiteSpace=wrap;html=1;fillColor=#D0CFCF;container=0;" vertex="1" parent="1">
          <mxGeometry x="307.69000000000005" y="638.996" width="20" height="12" as="geometry" />
        </mxCell>
        <mxCell id="ep5PbQnrRsc5Sk-XkBM--111" value="" style="rounded=1;whiteSpace=wrap;html=1;fillColor=#D0CFCF;container=0;" vertex="1" parent="1">
          <mxGeometry x="333.69000000000005" y="638.996" width="20" height="12" as="geometry" />
        </mxCell>
        <mxCell id="ep5PbQnrRsc5Sk-XkBM--113" value="" style="rounded=0;whiteSpace=wrap;html=1;align=center;verticalAlign=top;container=0;" vertex="1" parent="1">
          <mxGeometry x="395.69000000000005" y="585" width="50" height="40" as="geometry" />
        </mxCell>
        <mxCell id="ep5PbQnrRsc5Sk-XkBM--114" value="&lt;font style=&quot;font-size: 8px;&quot;&gt;&lt;b&gt;Service&lt;/b&gt;&lt;/font&gt;" style="text;html=1;align=center;verticalAlign=middle;whiteSpace=wrap;rounded=0;container=0;" vertex="1" parent="1">
          <mxGeometry x="390" y="575" width="60" height="30" as="geometry" />
        </mxCell>
        <mxCell id="ep5PbQnrRsc5Sk-XkBM--115" value="" style="rounded=1;whiteSpace=wrap;html=1;fillColor=light-dark(#b4c7e7, #ededed);container=0;" vertex="1" parent="1">
          <mxGeometry x="397.69000000000005" y="595.5" width="46" height="12" as="geometry" />
        </mxCell>
        <mxCell id="ep5PbQnrRsc5Sk-XkBM--116" value="" style="rounded=1;whiteSpace=wrap;html=1;fillColor=#D0CFCF;container=0;" vertex="1" parent="1">
          <mxGeometry x="397.69000000000005" y="608.996" width="20" height="12" as="geometry" />
        </mxCell>
        <mxCell id="ep5PbQnrRsc5Sk-XkBM--117" value="" style="rounded=1;whiteSpace=wrap;html=1;fillColor=#D0CFCF;container=0;" vertex="1" parent="1">
          <mxGeometry x="423.69000000000005" y="608.996" width="20" height="12" as="geometry" />
        </mxCell>
        <mxCell id="ep5PbQnrRsc5Sk-XkBM--122" value="" style="rounded=0;whiteSpace=wrap;html=1;align=center;verticalAlign=top;container=0;" vertex="1" parent="1">
          <mxGeometry x="225.69000000000005" y="675" width="50" height="52" as="geometry" />
        </mxCell>
        <mxCell id="ep5PbQnrRsc5Sk-XkBM--123" value="" style="rounded=1;whiteSpace=wrap;html=1;fillColor=light-dark(#b4c7e7, #ededed);container=0;" vertex="1" parent="1">
          <mxGeometry x="227.69000000000005" y="697" width="46" height="12" as="geometry" />
        </mxCell>
        <mxCell id="ep5PbQnrRsc5Sk-XkBM--124" value="" style="rounded=1;whiteSpace=wrap;html=1;fillColor=#D0CFCF;container=0;" vertex="1" parent="1">
          <mxGeometry x="227.69000000000005" y="710.496" width="20" height="12" as="geometry" />
        </mxCell>
        <mxCell id="ep5PbQnrRsc5Sk-XkBM--125" value="" style="rounded=1;whiteSpace=wrap;html=1;fillColor=#D0CFCF;container=0;" vertex="1" parent="1">
          <mxGeometry x="253.69000000000005" y="710.496" width="20" height="12" as="geometry" />
        </mxCell>
        <mxCell id="ep5PbQnrRsc5Sk-XkBM--126" value="&lt;b style=&quot;font-size: 8px; line-height: 0px;&quot;&gt;&amp;nbsp;Obfuscation&amp;nbsp;&lt;/b&gt;" style="text;html=1;align=center;verticalAlign=middle;whiteSpace=wrap;rounded=0;container=0;" vertex="1" parent="1">
          <mxGeometry x="220" y="665" width="60" height="32" as="geometry" />
        </mxCell>
        <mxCell id="ep5PbQnrRsc5Sk-XkBM--127" value="&lt;b style=&quot;font-size: 8px; line-height: 0px;&quot;&gt;Agent&lt;/b&gt;" style="text;html=1;align=center;verticalAlign=middle;whiteSpace=wrap;rounded=0;container=0;" vertex="1" parent="1">
          <mxGeometry x="220" y="675" width="60" height="30" as="geometry" />
        </mxCell>
        <mxCell id="ep5PbQnrRsc5Sk-XkBM--129" value="" style="rounded=0;whiteSpace=wrap;html=1;align=center;verticalAlign=top;container=0;" vertex="1" parent="1">
          <mxGeometry x="305.69000000000005" y="675" width="50" height="52" as="geometry" />
        </mxCell>
        <mxCell id="ep5PbQnrRsc5Sk-XkBM--130" value="" style="rounded=1;whiteSpace=wrap;html=1;fillColor=light-dark(#b4c7e7, #ededed);container=0;" vertex="1" parent="1">
          <mxGeometry x="307.69000000000005" y="697" width="46" height="12" as="geometry" />
        </mxCell>
        <mxCell id="ep5PbQnrRsc5Sk-XkBM--131" value="" style="rounded=1;whiteSpace=wrap;html=1;fillColor=#D0CFCF;container=0;" vertex="1" parent="1">
          <mxGeometry x="307.69000000000005" y="710.496" width="20" height="12" as="geometry" />
        </mxCell>
        <mxCell id="ep5PbQnrRsc5Sk-XkBM--132" value="" style="rounded=1;whiteSpace=wrap;html=1;fillColor=#D0CFCF;container=0;" vertex="1" parent="1">
          <mxGeometry x="333.69000000000005" y="710.496" width="20" height="12" as="geometry" />
        </mxCell>
        <mxCell id="ep5PbQnrRsc5Sk-XkBM--133" value="&lt;b style=&quot;font-size: 8px; line-height: 0px;&quot;&gt;&amp;nbsp;Obfuscation&amp;nbsp;&lt;/b&gt;" style="text;html=1;align=center;verticalAlign=middle;whiteSpace=wrap;rounded=0;container=0;" vertex="1" parent="1">
          <mxGeometry x="300" y="665" width="60" height="32" as="geometry" />
        </mxCell>
        <mxCell id="ep5PbQnrRsc5Sk-XkBM--134" value="&lt;b style=&quot;font-size: 8px; line-height: 0px;&quot;&gt;Agent&lt;/b&gt;" style="text;html=1;align=center;verticalAlign=middle;whiteSpace=wrap;rounded=0;container=0;" vertex="1" parent="1">
          <mxGeometry x="300" y="675" width="60" height="30" as="geometry" />
        </mxCell>
        <mxCell id="ep5PbQnrRsc5Sk-XkBM--136" value="" style="rounded=0;whiteSpace=wrap;html=1;align=center;verticalAlign=top;container=0;" vertex="1" parent="1">
          <mxGeometry x="385.69000000000005" y="675" width="50" height="52" as="geometry" />
        </mxCell>
        <mxCell id="ep5PbQnrRsc5Sk-XkBM--137" value="" style="rounded=1;whiteSpace=wrap;html=1;fillColor=light-dark(#b4c7e7, #ededed);container=0;" vertex="1" parent="1">
          <mxGeometry x="387.69000000000005" y="697" width="46" height="12" as="geometry" />
        </mxCell>
        <mxCell id="ep5PbQnrRsc5Sk-XkBM--138" value="" style="rounded=1;whiteSpace=wrap;html=1;fillColor=#D0CFCF;container=0;" vertex="1" parent="1">
          <mxGeometry x="387.69000000000005" y="710.496" width="20" height="12" as="geometry" />
        </mxCell>
        <mxCell id="ep5PbQnrRsc5Sk-XkBM--139" value="" style="rounded=1;whiteSpace=wrap;html=1;fillColor=#D0CFCF;container=0;" vertex="1" parent="1">
          <mxGeometry x="413.69000000000005" y="710.496" width="20" height="12" as="geometry" />
        </mxCell>
        <mxCell id="ep5PbQnrRsc5Sk-XkBM--140" value="&lt;b style=&quot;font-size: 8px; line-height: 0px;&quot;&gt;&amp;nbsp;Obfuscation&amp;nbsp;&lt;/b&gt;" style="text;html=1;align=center;verticalAlign=middle;whiteSpace=wrap;rounded=0;container=0;" vertex="1" parent="1">
          <mxGeometry x="380" y="665" width="60" height="32" as="geometry" />
        </mxCell>
        <mxCell id="ep5PbQnrRsc5Sk-XkBM--141" value="&lt;b style=&quot;font-size: 8px; line-height: 0px;&quot;&gt;Agent&lt;/b&gt;" style="text;html=1;align=center;verticalAlign=middle;whiteSpace=wrap;rounded=0;container=0;" vertex="1" parent="1">
          <mxGeometry x="380" y="675" width="60" height="30" as="geometry" />
        </mxCell>
      </root>
    </mxGraphModel>
  </diagram>
</mxfile>
